<?xml version="1.0" encoding="utf-8"?>
<!-- Generator: Adobe Illustrator 22.1.0, SVG Export Plug-In . SVG Version: 6.00 Build 0)  -->
<svg version="1.1" id="Layer_1" xmlns="http://www.w3.org/2000/svg" xmlns:xlink="http://www.w3.org/1999/xlink" x="0px" y="0px"
	 viewBox="0 0 512 512" style="enable-background:new 0 0 512 512;" xml:space="preserve">
<style type="text/css">
	.st0{fill:#010101;}
	.st1{fill:#8C8B8B;}
	.st2{fill:#C9C7C7;}
	.st3{fill:#9DC356;}
</style>
<g>
	<path class="st0" d="M193,129.9c-1.6-2.2-4.4-3.4-7.3-3l-54.6,7.1c-2.8,0.4-5.3,2.1-6.7,4.5c-1.5,2.7-1.4,5.9,0.3,8.3L155,189
		c1.4,2,3.7,3.1,6.2,3.1c0.5,0,1.1,0,1.6-0.2c1.3-0.2,2.5-0.8,3.6-1.5c1.2-0.9,2.2-2,2.8-3.3l24.3-49.3
		C194.7,135.1,194.5,132.1,193,129.9z M146.2,147.9l26.3-3.4l-11.7,23.8L146.2,147.9z"/>
	<path class="st0" d="M315.7,142.4l-95-132.8c-2.5-3.5-7.5-4.1-11.3-1.4L8.7,151.9c-1.7,1.2-3,3-3.5,5c-0.6,2.2-0.2,4.5,1.1,6.2
		l95,132.8c1.4,2,3.8,3.1,6.2,3.1c1.8,0,3.6-0.6,5.2-1.7l200.7-143.6c1.7-1.2,2.9-3,3.5-5C317.4,146.4,317,144.2,315.7,142.4z
		 M259,92.1l14.8,20.6l-22.2,15.9l-14.8-20.7L259,92.1z M227.9,95.4l-14.8-20.7l22.2-15.9L250,79.5L227.9,95.4z M211.5,25.7
		l14.8,20.6l-22.2,15.9l-14.8-20.7L211.5,25.7z M24.5,159.5l22.2-15.9l14.8,20.7l-22.2,15.9L24.5,159.5z M48.3,192.7l22.2-15.9
		l14.8,20.7L63,213.4L48.3,192.7z M72,225.9l22.2-15.9l14.8,20.7l-22.2,15.9L72,225.9z M110.6,279.8l-14.8-20.7l22.2-15.9l14.8,20.6
		L110.6,279.8z M146.4,254.1l-86-120.2l115.3-82.5l86,120.2L146.4,254.1z M275.4,161.8l-14.8-20.7l22.2-15.9l14.8,20.6L275.4,161.8z
		"/>
</g>
<g>
	<path class="st1" d="M184.5,317.9l-16.1-4.9c-0.5-0.1-1-0.1-1.4,0.2c-0.4,0.3-0.6,0.7-0.5,1.1l2.5,14.9c0.1,0.4,0.4,0.7,0.9,0.8
		c0.2,0.1,0.4,0.1,0.7,0c0.3,0,0.5-0.1,0.7-0.3l13.6-10c0.4-0.3,0.5-0.6,0.5-1C185.2,318.4,184.9,318.1,184.5,317.9z M171.4,326.8
		l-1.9-11l11.9,3.7L171.4,326.8z"/>
	<path class="st1" d="M208.1,289.6l-13.5,2.3l-48.6,8.3l-13.5,2.3c-0.7,0.1-1.3,0.7-1.2,1.3l2,11.7l2,11.7l2,11.7l2,11.7
		c0.1,0.6,0.8,1,1.5,0.8l13.5-2.3L203,341l13.5-2.3c0.7-0.1,1.3-0.7,1.2-1.3l-2-11.7l-2-11.7l-2-11.7l-2-11.7
		C209.5,289.9,208.9,289.5,208.1,289.6z M148.7,323.9l-10.8,1.8l-1.6-9.6l10.8-1.8L148.7,323.9z M138.2,327.8L149,326l1.6,9.6
		l-10.8,1.8L138.2,327.8z M153.6,336.2l-2-11.7l-2-11.7l-1.8-10.7l45.9-7.8l1.8,10.7l2,11.7l2,11.7l1.8,10.7l-45.9,7.8L153.6,336.2z
		 M210.8,313.3l-10.8,1.8l-1.6-9.6l10.8-1.8L210.8,313.3z M200.3,317.3l10.8-1.8l1.6,9.6l-10.8,1.8L200.3,317.3z M207.1,292l1.6,9.6
		l-10.8,1.8l-1.6-9.6L207.1,292z M134.3,304.4l10.8-1.8l1.6,9.6l-10.8,1.8L134.3,304.4z M141.9,349.2l-1.6-9.6l10.8-1.8l1.6,9.6
		L141.9,349.2z M214.7,336.8l-10.8,1.8l-1.6-9.6l10.8-1.8L214.7,336.8z"/>
</g>
<g>
	<path class="st2" d="M302.5,394.9l-12.4-4.3c-0.3-0.1-0.7,0-1,0.2c-0.3,0.2-0.4,0.6-0.3,1l3.2,13.7c0.1,0.4,0.4,0.6,0.7,0.7
		c0.2,0,0.3,0,0.5,0c0.2,0,0.4-0.1,0.5-0.3l9.1-9.4c0.2-0.2,0.3-0.6,0.3-0.9S302.8,395,302.5,394.9z M293.6,403.3l-2.4-10.1l9.2,3.2
		L293.6,403.3z"/>
	<path class="st2" d="M317.4,368.5l-9.8,2.3l-35.2,8.3l-9.8,2.3c-0.5,0.1-0.9,0.7-0.7,1.2l2.5,10.8l2.5,10.8l2.5,10.8l2.5,10.8
		c0.1,0.5,0.7,0.9,1.2,0.7l9.8-2.3l35.2-8.3l9.8-2.3c0.5-0.1,0.9-0.7,0.7-1.2l-2.5-10.8l-2.5-10.8l-2.5-10.8l-2.5-10.8
		C318.5,368.7,318,368.4,317.4,368.5z M276.5,400.9l-7.8,1.9l-2.1-8.8l7.8-1.9L276.5,400.9z M269.2,404.7l7.8-1.9l2.1,8.8l-7.8,1.9
		L269.2,404.7z M281.3,412.2l-2.5-10.8l-2.5-10.8l-2.3-9.8l33.3-7.9l2.3,9.8l2.5,10.8l2.5,10.8l2.3,9.8l-33.3,7.9L281.3,412.2z
		 M321.5,390.3l-7.8,1.9l-2.1-8.8l7.8-1.9L321.5,390.3z M314.2,394.1l7.8-1.9l2.1,8.8l-7.8,1.9L314.2,394.1z M316.9,370.7l2.1,8.8
		l-7.8,1.9l-2.1-8.8L316.9,370.7z M264.1,383.2l7.8-1.9l2.1,8.8l-7.8,1.9L264.1,383.2z M273.8,424.3l-2.1-8.8l7.8-1.9l2.1,8.8
		L273.8,424.3z M326.6,411.8l-7.8,1.9l-2.1-8.8l7.8-1.9L326.6,411.8z"/>
</g>
<g>
	<g>
		<g>
			<g>
				<path class="st0" d="M495.3,272.2c-4.7-11.5-14.2-19.8-26.2-22.8c-7.9-2-16.4-1.5-24.6,1.3l-48.4-36.9c0.6-8.6-1.2-16.9-5.2-24
					c-6-10.7-16.5-17.7-28.8-19.2c-12.1-1.5-25,2.5-35.5,11L277,221.7c-17.9,14.5-24.2,37.1-14.9,53.7c2.3,4.1,5.4,7.7,9.2,10.6
					c12.3,9.4,29.9,10.3,43.7,2.2l10.6-6.2c1.1,6.8,4.5,12.9,9.8,16.9c9,6.9,21.6,6.9,32.1,0.3l2.1,1.6c-3.6,11.9-0.2,24,8.8,30.9
					c5.3,4,12,5.8,18.9,5l-3.1,11.8c-2.7,10.2-1.8,20.6,2.7,29.1c4.6,8.7,12.3,14.8,21.8,17.2c2.9,0.7,5.8,1.1,8.8,1.1
					c6.8,0,13.7-1.8,20.1-5.4c9.1-5,16.5-13.2,20.7-22.8l25.7-58.5C499.5,297,499.9,283.5,495.3,272.2z M477.5,302.8l-25.7,58.5
					c-1.2,2.8-2.9,5.3-4.9,7.5c-2,2.2-4.3,4.1-7,5.5c-5.1,2.8-10.6,3.7-15.6,2.4c-4.9-1.2-8.8-4.3-11.2-8.8
					c-2.4-4.6-2.9-10.2-1.4-15.8l6.8-25.5c1.2-4.5-0.4-8.9-3.9-11.3c-1.6-1.1-3.5-1.6-5.5-1.6c-2.2,0-4.5,0.7-6.5,2.1
					c-4.2,3-9.2,3.2-12.6,0.6c-3.8-2.9-4.7-8.8-1.9-14c2.5-4.8,1.5-10.5-2.5-13.5l-10.8-8.3c-4-3-9.7-2.5-13.7,1.2
					c-4.3,4-10.2,4.8-14,1.8c-3.4-2.6-4.5-7.5-2.7-12.3c1.6-4.3,0.5-8.9-2.7-11.7c-3.3-2.8-8-3.1-12-0.8L307,272.1
					c-4.9,2.9-11,3.6-16.8,2.1c-5.3-1.5-9.6-4.7-12-9c-4.9-8.7-1-20.7,9.5-29.2l49.6-40.2c6.4-5.2,14-7.6,21.3-6.7
					c4,0.5,7.6,1.9,10.6,4.2c2.3,1.8,4.2,4,5.7,6.7c2.5,4.5,3.5,9.9,2.9,15.5c-0.6,4.9,1.3,9.5,5,12.3l51.8,39.6
					c3.7,2.8,8.6,3.4,13.2,1.6c5.3-2.1,10.7-2.5,15.7-1.3c6.8,1.7,12.1,6.3,14.8,12.9C481.1,287.3,480.8,295.3,477.5,302.8z"/>
			</g>
		</g>
	</g>
	<g>
		<g>
			<g>
				<path class="st0" d="M467.5,294c-2.3,3-5.7,4.6-9,4.6c-2.1,0-4.1-0.6-5.8-1.9c-4.4-3.4-5-10.1-1.3-15c1.7-2.3,4.2-3.8,6.8-4.4
					c2.8-0.6,5.7,0,8,1.7c2.2,1.7,3.6,4.3,3.8,7.2C470.1,288.9,469.2,291.7,467.5,294z"/>
			</g>
		</g>
	</g>
	<g>
		<g>
			<g>
				<path class="st0" d="M449.6,313.5c0,2.4-0.8,4.9-2.4,7.1c-2.3,3-5.7,4.6-9,4.6c-2.1,0-4.1-0.6-5.8-1.9c-4.4-3.4-5-10.1-1.3-15
					c3.7-4.8,10.3-6,14.8-2.7C448.4,307.5,449.6,310.4,449.6,313.5z"/>
			</g>
		</g>
	</g>
	<g>
		<g>
			<g>
				<path class="st0" d="M445.9,298.5c-1.7,2.3-4.2,3.8-6.8,4.4c-0.7,0.1-1.4,0.2-2.1,0.2c-2.1,0-4.2-0.7-5.8-1.9
					c-2.2-1.7-3.6-4.3-3.8-7.2c-0.2-2.7,0.7-5.5,2.4-7.8c1.7-2.3,4.2-3.8,6.8-4.4c2.8-0.6,5.7,0,8,1.7c1.1,0.8,2,1.9,2.6,3.1
					c0.6,1.2,1,2.6,1.1,4.1C448.5,293.5,447.6,296.2,445.9,298.5z"/>
			</g>
		</g>
	</g>
	<g>
		<g>
			<g>
				<path class="st0" d="M468.8,316c-1.7,2.3-4.1,3.8-6.8,4.4c-0.7,0.1-1.4,0.2-2.1,0.2c-2.1,0-4.2-0.7-5.8-1.9
					c-2.2-1.7-3.6-4.3-3.8-7.2c-0.2-2.7,0.7-5.5,2.4-7.8c3.7-4.8,10.3-6,14.8-2.7c1.1,0.8,2,1.9,2.6,3.1c0.6,1.2,1,2.6,1.1,4.1
					C471.5,311,470.6,313.8,468.8,316z"/>
			</g>
		</g>
	</g>
	<g>
		<g>
			<g>
				<path class="st0" d="M364.9,236.7c-1.5,2-3.6,3.3-5.9,3.8c-2.5,0.5-5,0-7-1.5l-3.6-2.8l-3.6,4.7c-2,2.6-4.9,4-7.8,4
					c-1.8,0-3.6-0.6-5.1-1.7c-3.9-3-4.4-8.8-1.2-13l3.6-4.7l-3.6-2.8c-1.9-1.5-3.1-3.8-3.3-6.3c-0.1-2.4,0.6-4.7,2.1-6.7
					c1.5-2,3.6-3.3,5.9-3.8c2.5-0.5,5,0,7,1.5l3.6,2.8l3.6-4.7c1.5-2,3.6-3.3,5.9-3.8c2.5-0.5,5,0,7,1.5c1.9,1.5,3.1,3.8,3.3,6.3
					c0.1,2.4-0.6,4.7-2.1,6.7l-3.6,4.7l3.6,2.8C367.6,226.6,368.2,232.5,364.9,236.7z"/>
			</g>
		</g>
	</g>
	<g>
		<g>
			<g>
				<path class="st0" d="M396,260.4c-2,2.6-4.9,4-7.8,4c-1.8,0-3.6-0.5-5.1-1.7l-4.2-3.2c-1.9-1.5-3.1-3.8-3.3-6.3
					c-0.1-2.4,0.6-4.7,2.1-6.7c1.5-2,3.6-3.3,5.9-3.8c2.5-0.5,5,0,7,1.5l4.2,3.2C398.7,250.3,399.2,256.2,396,260.4z"/>
			</g>
		</g>
	</g>
	<g>
		<g>
			<g>
				<path class="st0" d="M417.9,277.1c-2,2.6-4.9,4-7.8,4c-1.8,0-3.6-0.5-5.1-1.7l-4.2-3.2c-1.9-1.5-3.1-3.8-3.3-6.3
					c-0.1-2.4,0.6-4.7,2.1-6.7c1.5-2,3.6-3.3,5.9-3.8c2.5-0.5,5,0,7,1.5l4.2,3.2c1.9,1.5,3.1,3.8,3.3,6.3
					C420.2,272.8,419.4,275.2,417.9,277.1z"/>
			</g>
		</g>
	</g>
	<g>
		<g>
			<path class="st0" d="M359.2,267.9c-2.8-2.2-7.1-1.3-9.6,2c-2.5,3.3-2.2,7.7,0.6,9.8c2.8,2.2,7.1,1.3,9.6-2
				C362.2,274.4,362,270,359.2,267.9z M353.5,275.3c-0.7-0.5-0.8-1.7-0.2-2.5c0.6-0.8,1.7-1.1,2.5-0.5s0.8,1.7,0.2,2.5
				C355.3,275.6,354.2,275.8,353.5,275.3z"/>
		</g>
	</g>
	<g>
		<g>
			<path class="st0" d="M402.3,300.4c-2.9-2.2-7.4-1.3-10,2.1c-2.6,3.4-2.3,7.9,0.6,10.2c2.9,2.2,7.4,1.3,10-2.1
				C405.5,307.2,405.2,302.7,402.3,300.4z M396.4,308.1c-0.7-0.6-0.8-1.7-0.2-2.6c0.7-0.9,1.8-1.1,2.5-0.5c0.7,0.6,0.8,1.7,0.2,2.6
				S397.2,308.7,396.4,308.1z"/>
		</g>
	</g>
</g>
<g>
	<g>
		<g>
			<path class="st1" d="M330.3,338.4l-8.2-20.3c-1.6-3.9-4.8-7-8.9-8.5c-4.1-1.5-8.7-1.3-12.6,0.6c-2.9,1.4-5.2,3.5-6.8,6.2
				c0,0,0,0,0,0l-26.4,2.6c0,0,0,0,0,0c-2.1-2.3-4.8-4-7.9-4.7c-4.2-1.1-8.8-0.4-12.5,1.9c-3.7,2.3-6.3,6-7,10.1l-4,21.5
				c-1.3,7.1,2.5,13.4,9,15.1c1.6,0.4,3.3,0.5,5,0.4c5.4-0.5,10.5-3.9,12.3-8.8l2.3-6.2c2,2.1,5,3.3,8.1,3c4.2-0.4,7.7-3.5,8.6-7.4
				l3.4-0.3c1.6,3.7,5.6,6,9.9,5.5c3.1-0.3,5.8-2,7.4-4.5l3.5,5.6c1.8,2.8,4.6,4.9,7.9,5.8c3.3,0.9,6.8,0.6,9.9-0.9
				c3.1-1.5,5.5-4,6.7-7.1C331.5,344.9,331.5,341.5,330.3,338.4z M326.6,346.6c-0.9,2.2-2.6,4-4.8,5.1c-2.2,1.1-4.7,1.3-7.1,0.6
				c-2.4-0.7-4.3-2.1-5.6-4.1l-4.9-7.8c-0.5-0.9-1.6-1.3-2.6-1.2c-1,0.2-1.9,0.9-2.1,1.9c-0.6,2.3-2.6,4-5.1,4.2
				c-2.7,0.3-5.3-1.4-6.1-3.9c-0.4-1.1-1.5-1.9-2.7-1.7l-5.5,0.5c-1.2,0.1-2.2,1.1-2.3,2.2c-0.3,2.6-2.5,4.8-5.2,5
				c-2.4,0.2-4.8-1-5.8-3.1c-0.4-0.9-1.4-1.5-2.4-1.4c-1,0-2,0.7-2.3,1.6l-3.3,8.6c-1.7,4.5-7.6,7.3-12.6,6
				c-4.6-1.2-7.1-5.6-6.2-10.8l4-21.5c0.6-3.2,2.5-5.8,5.3-7.6c1.6-1,3.3-1.6,5.1-1.8c1.4-0.1,2.8,0,4.2,0.3
				c2.3,0.6,4.3,1.8,5.9,3.5c0.8,0.9,2.1,1.4,3.4,1.3l26.4-2.6c1.3-0.1,2.4-0.9,3.1-1.9c1.2-2,2.9-3.6,5.1-4.6
				c3-1.4,6.3-1.6,9.4-0.4c3.1,1.1,5.5,3.4,6.7,6.4l8.2,20.3C327.5,342,327.5,344.4,326.6,346.6z"/>
		</g>
	</g>
	<g>
		<g>
			
				<ellipse transform="matrix(0.9951 -9.924868e-02 9.924868e-02 0.9951 -30.2994 32.0889)" class="st1" cx="307.4" cy="320.6" rx="2.5" ry="2.4"/>
		</g>
	</g>
	<g>
		<g>
			
				<ellipse transform="matrix(0.9951 -9.924868e-02 9.924868e-02 0.9951 -31.4108 32.2559)" class="st1" cx="308.5" cy="331.8" rx="2.5" ry="2.4"/>
		</g>
	</g>
	<g>
		<g>
			
				<ellipse transform="matrix(0.9951 -9.924868e-02 9.924868e-02 0.9951 -30.9419 31.5949)" class="st1" cx="302.1" cy="326.8" rx="2.5" ry="2.4"/>
		</g>
	</g>
	<g>
		<g>
			
				<ellipse transform="matrix(0.9951 -9.924868e-02 9.924868e-02 0.9951 -30.7683 32.75)" class="st1" cx="313.8" cy="325.6" rx="2.5" ry="2.4"/>
		</g>
	</g>
	<g>
		<g>
			<path class="st1" d="M261.3,329l-3.5,0.3l-0.3-3.3c-0.1-1-1.1-1.8-2.1-1.7c-1.1,0.1-1.9,1-1.8,2.1l0.3,3.3l-3.5,0.3
				c-1.1,0.1-1.9,1-1.8,2.1c0.1,1,1.1,1.8,2.1,1.7l3.5-0.3l0.3,3.3c0.1,1,1.1,1.8,2.1,1.7c1.1-0.1,1.9-1,1.8-2.1l-0.3-3.3l3.5-0.3
				c1.1-0.1,1.9-1,1.8-2.1C263.3,329.6,262.3,328.8,261.3,329z"/>
		</g>
	</g>
	<g>
		<g>
			<path class="st1" d="M277.1,327.4l-2.1,0.2c-1.1,0.1-1.9,1-1.8,2.1c0.1,1,1.1,1.8,2.1,1.7l2.1-0.2c1.1-0.1,1.9-1,1.8-2.1
				C279.1,328,278.1,327.3,277.1,327.4z"/>
		</g>
	</g>
	<g>
		<g>
			<path class="st1" d="M288.2,326.3l-2.1,0.2c-1.1,0.1-1.9,1-1.8,2.1c0.1,1,1.1,1.8,2.1,1.7l2.1-0.2c1.1-0.1,1.9-1,1.8-2.1
				C290.3,326.9,289.3,326.2,288.2,326.3z"/>
		</g>
	</g>
	<g>
		<g>
			<path class="st1" d="M271.6,338.1c-2.2,0.2-3.8,2.1-3.6,4.2c0.2,2.1,2.1,3.6,4.3,3.4c2.2-0.2,3.8-2.1,3.6-4.2
				C275.8,339.4,273.8,337.9,271.6,338.1z M272.1,342.9c-0.6,0.1-1-0.3-1.1-0.9c-0.1-0.5,0.4-1,0.9-1.1c0.6-0.1,1.1,0.3,1.1,0.9
				C273.1,342.4,272.7,342.8,272.1,342.9z"/>
		</g>
	</g>
	<g>
		<g>
			<path class="st1" d="M293.5,335.9c-2.2,0.2-3.8,2.1-3.6,4.2c0.2,2.1,2.1,3.6,4.3,3.4c2.2-0.2,3.8-2.1,3.6-4.2
				C297.6,337.3,295.7,335.7,293.5,335.9z M294,340.7c-0.6,0.1-1-0.3-1.1-0.9c-0.1-0.5,0.4-1,0.9-1.1c0.6-0.1,1,0.3,1.1,0.9
				C294.9,340.2,294.5,340.7,294,340.7z"/>
		</g>
	</g>
</g>
<g>
	<g>
		<g>
			<path class="st2" d="M240.8,446.2l9.6-13.7c1.9-2.7,2.5-6,1.8-9.1c-0.7-3.2-2.7-5.9-5.5-7.5c-2-1.2-4.4-1.7-6.7-1.5c0,0,0,0,0,0
				l-12.4-15.1c0,0,0,0,0,0c0.6-2.3,0.6-4.6-0.2-6.9c-1-3.1-3.3-5.6-6.3-6.9c-3-1.3-6.4-1.3-9.3,0l-15.3,6.7
				c-5.1,2.2-7.6,7.3-5.9,12c0.4,1.2,1,2.3,1.8,3.2c2.6,3.1,6.8,4.8,10.6,3.8l4.9-1.2c-0.5,2.2,0,4.5,1.4,6.3c2,2.4,5.3,3.3,8.2,2.1
				l1.6,2c-1.7,2.6-1.5,6,0.5,8.5c1.5,1.8,3.7,2.7,5.9,2.6l-2.1,4.6c-1.1,2.3-1.3,4.9-0.5,7.3c0.8,2.4,2.4,4.5,4.6,5.7
				c2.2,1.3,4.8,1.7,7.3,1.1C237.2,449.8,239.4,448.3,240.8,446.2z M234.1,447.5c-1.8,0.4-3.6,0.1-5.2-0.8c-1.6-0.9-2.7-2.4-3.3-4.1
				c-0.5-1.7-0.4-3.6,0.4-5.2l3-6.4c0.3-0.7,0.2-1.5-0.3-2.1c-0.5-0.6-1.3-0.8-2-0.5c-1.7,0.6-3.6,0.1-4.8-1.3
				c-1.3-1.6-1.3-3.9,0-5.4c0.6-0.7,0.6-1.7,0-2.4l-2.6-3.2c-0.6-0.7-1.6-0.9-2.4-0.5c-1.8,1-4,0.5-5.3-1.1
				c-1.1-1.4-1.3-3.4-0.4-4.9c0.4-0.7,0.4-1.5-0.1-2.1c-0.5-0.6-1.2-0.9-2-0.7l-6.8,1.7c-3.6,0.9-7.8-1.5-9-5.2
				c-1.1-3.3,0.7-6.8,4.4-8.4l15.3-6.7c2.2-1,4.7-1,7,0c1.3,0.6,2.4,1.4,3.2,2.4c0.7,0.8,1.2,1.7,1.5,2.7c0.6,1.7,0.6,3.5,0.1,5.2
				c-0.3,0.9-0.1,1.9,0.6,2.7l12.4,15.1c0.6,0.7,1.5,1.1,2.5,1.1c1.8-0.1,3.5,0.3,5,1.1c2.1,1.2,3.6,3.2,4.1,5.6
				c0.5,2.4,0,4.8-1.4,6.8l-9.6,13.7C237.4,446,235.9,447.1,234.1,447.5z"/>
		</g>
	</g>
	<g>
		<g>
			<circle class="st2" cx="242.9" cy="424.5" r="1.8"/>
		</g>
	</g>
	<g>
		<g>
			<circle class="st2" cx="236.1" cy="430" r="1.8"/>
		</g>
	</g>
	<g>
		<g>
			<circle class="st2" cx="236.7" cy="423.9" r="1.8"/>
		</g>
	</g>
	<g>
		<g>
			<circle class="st2" cx="242.3" cy="430.6" r="1.8"/>
		</g>
	</g>
	<g>
		<g>
			<path class="st2" d="M218.7,399.6l-1.6-2l2-1.6c0.6-0.5,0.7-1.4,0.2-2.1c-0.5-0.6-1.4-0.7-2.1-0.2l-2,1.6l-1.6-2
				c-0.5-0.6-1.4-0.7-2.1-0.2c-0.6,0.5-0.7,1.4-0.2,2.1l1.6,2l-2,1.6c-0.6,0.5-0.7,1.4-0.2,2.1c0.5,0.6,1.4,0.7,2.1,0.2l2-1.6l1.6,2
				c0.5,0.6,1.4,0.7,2.1,0.2C219.1,401.1,219.2,400.2,218.7,399.6z"/>
		</g>
	</g>
	<g>
		<g>
			<path class="st2" d="M226.2,408.7l-1-1.2c-0.5-0.6-1.4-0.7-2.1-0.2c-0.6,0.5-0.7,1.4-0.2,2.1l1,1.2c0.5,0.6,1.4,0.7,2.1,0.2
				C226.6,410.2,226.7,409.3,226.2,408.7z"/>
		</g>
	</g>
	<g>
		<g>
			<path class="st2" d="M231.4,415.1l-1-1.2c-0.5-0.6-1.4-0.7-2.1-0.2c-0.6,0.5-0.7,1.4-0.2,2.1l1,1.2c0.5,0.6,1.4,0.7,2.1,0.2
				C231.8,416.6,231.9,415.7,231.4,415.1z"/>
		</g>
	</g>
	<g>
		<g>
			<path class="st2" d="M217.1,409.9c-1-1.2-2.9-1.4-4.1-0.4c-1.2,1-1.4,2.9-0.4,4.1c1,1.2,2.9,1.4,4.1,0.4
				C217.9,413,218.1,411.2,217.1,409.9z M214.2,412.3c-0.3-0.3-0.2-0.8,0.1-1.1c0.3-0.3,0.8-0.2,1.1,0.1c0.3,0.3,0.2,0.8-0.1,1.1
				C215,412.6,214.5,412.6,214.2,412.3z"/>
		</g>
	</g>
	<g>
		<g>
			<path class="st2" d="M227.4,422.5c-1-1.2-2.9-1.4-4.1-0.4c-1.2,1-1.4,2.9-0.4,4.1c1,1.2,2.9,1.4,4.1,0.4
				C228.2,425.6,228.4,423.7,227.4,422.5z M224.6,424.8c-0.3-0.3-0.2-0.8,0.1-1.1c0.3-0.3,0.8-0.2,1.1,0.1c0.3,0.3,0.2,0.8-0.1,1.1
				C225.3,425.2,224.8,425.1,224.6,424.8z"/>
		</g>
	</g>
</g>
<path class="st3" d="M415.2,501.1H96.8c-6.6,0-12-5.4-12-12v-46.4c0-6.6,5.4-12,12-12s12,5.4,12,12v34.4h294.3v-34.4
	c0-6.6,5.4-12,12-12s12,5.4,12,12v46.4C427.2,495.7,421.8,501.1,415.2,501.1z"/>
</svg>
