<?xml version="1.0" encoding="utf-8"?>
<svg version="1.0" xmlns="http://www.w3.org/2000/svg" width="1066.667" height="1066.667" viewBox="0 0 800.000000 800.000000"><path d="M334 16.4c-2.7.9-61.7 42.9-64 45.6-.3.3-6.6 4.9-14 10.3-11 7.9-80.9 58.9-90 65.7-5.9 4.4-20.7 15.3-54.5 40-19.8 14.5-42.1 30.8-49.5 36.2-7.4 5.4-14.2 10.4-15 11.1-.8.7-6.1 4.5-11.6 8.5-5.6 4-10.7 7.9-11.4 8.7-.7.8-1.5 3.4-1.7 5.8-.5 4.2-.3 4.5 63.5 95.7C121 394.3 154 441.4 159 448.6c12 17.2 15.1 18.6 25.1 11.6 6.7-4.8 39.9-28.9 41.9-30.5.8-.7 3.1-2.3 5-3.7 1.9-1.3 3.7-2.7 4-3 .3-.4 2.7-2.2 5.5-4 2.7-1.9 5.6-4 6.5-4.7 1.9-1.6 51.4-37.9 59.8-43.8 3.4-2.5 6.8-4.9 7.5-5.5 1-.9 14.6-10.9 21.5-15.8 1.3-.9 6.1-4.4 10.5-7.7 10.1-7.5 62.4-45.7 79.5-58.2 7-5.1 13.2-9.6 13.7-10 .6-.5 7.8-5.7 16-11.7 35.7-26 34.8-25.2 34.2-31.6-.3-3.7-1.6-6.3-6.9-13.6-3.6-4.9-7.7-10.8-9.1-13-2.4-3.5-16.4-23.5-21.7-30.9C450.2 170 375.4 63 372 58c-.6-.8-3.7-5.3-7-10s-6.5-9.2-7-10c-.6-.8-4-5.7-7.8-10.9-7.6-10.8-10.5-12.7-16.2-10.7zm23 58.5c0 .5-1.2 1.8-2.7 3-7.6 5.8-32.8 24.1-33.2 24.1-.4 0-6.1-7.9-12.8-17.5L296.1 67l5.7-4.2c3.1-2.3 10.7-7.9 16.7-12.3 6.1-4.5 11.9-8.6 12.9-9.2 1.7-.9 3.2.8 13.8 15.8 6.5 9.3 11.8 17.3 11.8 17.8zm-74.4 10.3c1.6 2.4 3.3 4.7 3.7 5.3.5.5 15.9 22.6 34.3 49 18.5 26.4 34.6 49.6 36 51.5 1.4 1.9 7.7 11.1 14.2 20.3 6.4 9.2 18.3 26.1 26.3 37.5l14.6 20.8-6.2 4.5c-3.4 2.4-37.8 27.6-76.4 55.9-95.8 70.2-94.2 69.1-95.2 69.3-.6.2-44.1-61.3-80.1-113.1-2.3-3.4-8.6-12.3-13.8-19.7-5.2-7.4-11.4-16.3-13.8-19.7-2.4-3.5-9-13-14.8-21.2-5.7-8.2-10.4-15.1-10.4-15.5 0-.5 13.4-10.5 24.3-18.1 2.7-1.9 22.8-16.7 24.2-17.8.6-.4 16.1-11.7 34.5-25.2 18.4-13.4 34.9-25.4 36.5-26.7 4.4-3.4 3.6-2.8 22.8-16.8 9.9-7.2 21.7-15.8 26.4-19.2 4.7-3.5 8.9-6.1 9.3-5.8.3.2 2 2.3 3.6 4.7zm94.9 18.4c4.4 6.4 8.5 12.1 9 12.8.6.6 2.5 3.2 4.2 5.7l3.3 4.7-17.9 13.1c-9.8 7.2-18.3 13.1-18.8 13.1-.8 0-20.5-27-24.5-33.5-.4-.7 1-2.4 3.5-4.2 2.3-1.7 10.5-7.6 18.1-13.2C362 96.6 368.6 92 368.9 92c.4 0 4.3 5.2 8.6 11.6zm49 69.8l3.5 4.9-10.7 7.8c-14.5 10.6-14.1 10.3-20.2 14.9-3 2.2-5.7 4-6 4-.8 0-24.1-33.7-24.1-34.9 0-.8 22-17.4 32.4-24.4l3.8-2.7 8.9 12.8c4.8 7 10.4 14.9 12.4 17.6zm22.2 31.8c3.9 5.7 9.4 13.5 12.1 17.4l5.1 7.2-18.4 13.5-18.4 13.6-6.9-9.7c-3.7-5.3-9.4-13.3-12.5-17.8l-5.6-8.1 13.6-9.9c7.5-5.4 15.4-11.3 17.7-13.1 2.2-1.8 4.6-3.2 5.2-3.2.5-.1 4.2 4.5 8.1 10.1zM96.9 242.4l11.1 15.9-13.8 10.1c-19.5 14.4-23.2 17-23.5 16.5C67 280.2 47 250.8 47 250.1c0-.6 2.6-2.8 5.8-5.1 3.1-2.2 11.3-8.1 18.1-13 11.3-8.3 12.5-8.9 13.6-7.3.7 1 6.3 9 12.4 17.7zm32.5 46.6c5.2 7.4 9.9 13.9 10.3 14.5.4.5 1.6 2.2 2.5 3.7l1.7 2.6-8.7 6.5c-4.8 3.5-13.1 9.6-18.4 13.5l-9.7 7.1-11.7-16.7c-6.4-9.2-11.8-17.4-12-18.2-.3-1 5.8-6 17.3-14.3 9.7-7 18.1-12.6 18.5-12.5.4.2 5 6.4 10.2 13.8zm38.4 54.7c6.8 9.6 12.2 17.7 12 17.8-2.4 2-36.3 26.5-36.7 26.5-.8-.1-23.5-32.9-23.9-34.4-.1-.7 4.1-4.5 9.5-8.4 5.4-4 13.4-9.9 17.8-13.1 4.4-3.3 8.2-6 8.5-6 .3 0 6 7.9 12.8 17.6zm33.5 48c5.3 7.6 10 14.3 10.5 14.8 3.2 3.9 4.2 6.3 3 7.2-.7.6-9 6.7-18.5 13.6l-17.2 12.6-6-8.7c-3.3-4.8-6.4-9.2-6.8-9.7-2.7-3.2-11.3-16.3-11.2-17.1 0-1.1 33.9-26.2 35.5-26.3.6-.1 5.4 6.1 10.7 13.6z"/><path d="M289.9 202.4c-.2.2-3.3.7-6.8 1-3.5.4-11.1 1.4-17 2.2-11.8 1.6-14.4 2-21.6 2.9-2.7.3-6.1.8-7.5 1-1.4.2-4.3.7-6.5.9-19 2.4-20.8 2.7-23.6 4.1-2.7 1.5-5.9 6.9-5.9 10.2 0 1.1 2.1 5.1 4.8 8.9 7 10.1 14.4 20.8 27.8 39.9 6.5 9.4 12.7 18.3 13.7 19.8 2.1 3.3 7.4 5.8 10.7 5.2 5.2-1 7.2-3.7 15.5-20.8 4.5-9.5 12.2-25.3 17-35.2 14-29 13.9-28.8 13.6-33.7-.2-3.3-5.2-6.8-9.7-6.8-2.2 0-4.3.2-4.5.4zm-13.8 23.8c-.5 1.3-5.2 11.2-10.5 22.2l-9.6 19.8-3.7-5.3c-2-3-7.8-11.4-13-18.7-5.7-8.2-8.8-13.4-8-13.7 1.3-.4 7.1-1.2 15.2-2.1 2.8-.3 7.7-.9 11-1.4 3.3-.5 8.7-1.2 12-1.6 3.3-.3 6.2-.8 6.4-1 1-.9 1-.3.2 1.8zM546.9 269.5c-.3.2-2.5.6-5.1.9-10 1.2-26.6 9.4-35.9 17.8-1.5 1.2-4.4 3.6-6.5 5.3-2 1.6-4.2 3.4-4.8 4-.6.5-3.4 2.8-6.1 5-2.8 2.2-5.4 4.4-6 5-.5.6-3.2 2.9-6 5.1-14.7 11.8-46.6 38.7-50.3 42.5-16.6 16.7-24.8 42.5-19.7 61.9 4.7 17.7 19.8 32.7 37.7 37.3 7.3 1.9 21.6 1.9 28.8.1 5.6-1.5 20.3-8.4 23.1-11 .8-.8 1.9-1.4 2.2-1.4.4 0 2.5-1.1 4.7-2.5 4.1-2.6 5.5-3.1 4.6-1.7-.9 1.4 2 10.7 5 16.2 4.6 8.5 14.5 15.9 23.6 17.6 9.2 1.7 21.1-.2 28.5-4.6 4.3-2.5 4.7-2.5 7.7.1 2.1 1.8 2.3 2.5 1.5 4.8-1.5 3.8-1.9 14.7-.8 20.4 2.3 12.1 10.3 22.7 20.8 27.5 4.2 2 7.7 2.7 14.2 3l8.6.4-3.4 13.2c-4.6 17.3-5.1 31.1-1.4 42.6 5.4 16.7 16.9 28.5 33 33.6 5.7 1.9 19 2.6 25.4 1.4 12.5-2.4 25.9-10.1 35.4-20.4 8.3-9 11.1-13.9 21.2-37.6 5.1-11.8 9.9-22.9 10.6-24.5 9-19.8 24-56.4 25.6-62.4 1.9-7.3 2.8-23.9 1.5-30-4.9-23.2-19.1-39.7-40.2-46.5-9.3-3-22.1-2.7-36.6.9-2.4.6-4.1-.4-13-7.4-12.1-9.5-10.7-8.4-18.8-14.6-3.6-2.8-6.7-5.2-7-5.6-.3-.3-9-7.2-19.5-15.3l-19-14.7-.2-7.3c-.9-33.2-23.6-57.6-54.9-59.1-4.5-.3-8.3-.3-8.5 0zm19.3 27.8c13.6 6.7 19.9 17.9 20.4 36.9.3 13.9 1.5 16.2 11.9 24.3 1.7 1.3 7.5 5.9 13 10.2 5.5 4.3 12.9 10.1 16.5 12.8 6.8 5.2 8.3 6.3 10.3 8 .7.6 7.7 6.1 15.7 12.3 8 6.2 15.3 11.9 16.2 12.7 6.1 5 12.9 5.9 21.4 2.8 3.4-1.2 7.9-1.8 14.4-1.8 8.3 0 10.2.3 15 2.7 12 5.9 19.3 16.9 20.6 31.1 1 11.1-1.2 17.6-22.2 66.4-19.4 45.3-23.5 54.2-25.7 57-8.9 11.1-18 16.3-29.8 17-6.7.5-8.3.2-13-2-7.2-3.4-11.1-7.1-14.5-13.7-2.3-4.7-2.8-6.8-2.8-14-.1-7.7.7-15.1 1.9-16.9.2-.4.6-1.9.9-3.3.2-1.4 1.3-5.8 2.5-9.9 6.3-22.6 6.7-25.5 4.7-30.3-3.2-7.7-11.9-9.5-21.1-4.5-6.6 3.6-10.7 4.3-15.2 2.9-10.1-3.3-14-14.1-9.3-26 2.5-6.5 2.5-11.4 0-15.5-1.1-1.9-6.6-6.7-12.1-10.9-9.6-7.3-11.7-8.2-17.4-7.6-2 .2-8.5 3.7-9.5 5.2-.3.4-2.7 1.7-5.4 2.8-8.2 3.7-16.4 1.3-20.5-6-2-3.5-2.2-5.1-1.8-10.3.3-3.4.8-7.5 1.2-9.2 1.5-7-3.3-14.8-9.8-15.8-4.8-.7-8.7 1-27.6 12.2-21.4 12.7-24.7 14.2-32.4 14.5-22.7.9-38.4-17.4-33-38.4 2.6-10.2 9.8-19.9 22.8-30.7 2.8-2.3 14.9-12.3 27-22.3s23.1-19.1 24.5-20.4c1.4-1.2 4.5-3.7 7-5.6 2.5-1.9 4.9-4 5.5-4.6 2.5-2.6 10.4-8.4 14.5-10.4 7.9-4.1 12.1-5 21.1-4.7 6.9.2 9.6.8 14.1 3z"/><path d="M548.3 319c-1.2.5-4.3 3.6-6.9 6.9l-4.7 6-3.6-2.8c-6.2-4.8-9.7-5.7-14.6-3.6-4.1 1.7-6.5 4.6-7.5 9-1.4 6.2.7 10.4 7.9 15.5 2.7 1.9 2.7 2.5-.9 7-7.8 9.9-7.3 18.8 1.3 22.5 5.7 2.4 10.2.2 17.1-8.8 3.5-4.4 4.5-4.5 7.6-1.2 4.5 4.8 12.4 5.6 16.7 1.7 7.7-6.8 7.1-15-1.6-22l-4-3.3 4.4-6.5c4.7-6.8 5.6-10.9 3.4-15.7-2.1-4.7-9-6.9-14.6-4.7zM590.9 382.8c-6.8 3.4-9.4 13-5.1 18.7 2.6 3.5 10.8 8.8 13.9 9 3.7.3 9.6-3 11.6-6.5 4-6.7 1.5-13.4-7.2-19.5-5-3.4-8.7-3.9-13.2-1.7zM624.9 408.4c-6.7 2.9-10.2 11.5-7.1 17.3 1.3 2.3 8.2 8.3 11.8 10.1 4.7 2.4 12.3-.9 15.3-6.5 3.3-6.3.7-13-7-18.2-5.3-3.7-9.1-4.5-13-2.7zM546.8 417.9c-9 4.5-9.9 17.1-1.4 20.1 2.4.8 3.8.6 7.1-1 7.2-3.5 9.4-12.2 4.5-17.5-2.9-3-6.3-3.6-10.2-1.6zm4.7 9.6c0 1.3-.8 2.1-2.2 2.3-1.7.3-2.3-.2-2.3-1.6 0-1 .3-2.2.7-2.6 1.3-1.3 3.8-.1 3.8 1.9zM704.3 436c-4.7 1.9-9 7.8-9.3 12.7-.4 5.8.1 7.4 3.3 11 3 3.2 4 3.6 8.4 3.7 4 0 5.8-.5 8.5-2.6 11.2-8.5 7.3-26-5.6-25.7-1.7 0-4.1.4-5.3.9zM671 443.3c-7.6 3.6-11 12.3-7.7 19.9 5.7 13.3 25.7 7 25.7-8 0-10.1-9.1-16.1-18-11.9zM611 468.8c-10.7 5.3-8.1 21.8 3.3 20.6 10.1-1 14.7-14.3 7.1-20.3-3.3-2.6-5.8-2.6-10.4-.3zm6 9.2c0 2.4-2.6 3.8-4.2 2.2-1.6-1.6-.2-4.2 2.2-4.2 1.3 0 2 .7 2 2zM706 470.6c-6.3 2.6-10.8 11.9-8.6 17.9 3.5 9.6 12.9 12.3 20.5 5.9 6.2-5.2 7.7-12.7 4-19.3-3.2-5.7-9.1-7.4-15.9-4.5zM674 477.1c-1.4.6-3.6 2-4.8 3.2-11.1 10.3-2.6 28.3 11.1 23.8 4.4-1.5 6.9-3.7 9.1-7.9 4-7.7.8-17.1-6.5-19.2-4.1-1.2-5.6-1.2-8.9.1zM325.9 452.4c-.2.2-2.4.7-4.9 1-2.5.3-5.8.8-7.5 1.1-1.6.3-5.5 1-8.5 1.5-3 .6-6.4 1.2-7.5 1.4-1.1.2-4 .7-6.5 1.1-2.5.4-5.4.9-6.5 1.1-5 1-13.3 2.4-16.9 3-2.1.3-4.8.8-6 1-1.1.2-6.1 1.1-11.1 2-9.3 1.6-12.2 2.1-16.5 2.8-1.4.3-6.8 1.2-12 2.1-5.2.9-9.8 1.9-10.2 2.1-.4.3-.6 1.7-.4 3.2 1.7 10.3 3.9 23 4.2 24.7.2 1 .6 3.7.9 6 .6 3.9 2 12.7 3 18.2.3 1.6.8 4.4 1 6.3.3 1.9.8 4.6 1.1 6 .3 1.3.7 4 1 5.9.2 2 .9 4 1.4 4.5.6.6 5.4.1 13.2-1.3 6.8-1.2 13.9-2.4 15.8-2.7 1.9-.3 7.3-1.2 12-2.1 4.7-.8 9.4-1.7 10.5-1.9 4.8-.8 20.3-3.5 23-3.9 1.7-.3 3.7-.8 4.5-1 .8-.2 4.2-.7 7.5-1.1 3.3-.3 6.3-.8 6.6-1 .4-.2 2.4-.6 4.5-.9 2.2-.4 4.6-.8 5.4-1 .8-.2 3.5-.7 5.9-1 2.3-.4 5.4-1 6.7-1.5 2.6-1 2.6-1.9-.1-15-.3-1.4-.7-4.1-.9-6-.7-5-1.4-9.6-4.3-26-1.3-8-2.7-16.4-2.9-18.6-.8-6.6-1.9-9.9-3.5-10.2-.8-.1-1.7-.1-2 .2zm.5 6.3c.3 1.6.8 4.9 1.2 7.4l.6 4.7-7.9 1.4c-4.3.8-7.9 1.4-8 1.3-.5-.2-1.5-7.3-1.7-11l-.1-4 6-1.1c9-1.8 9.3-1.7 9.9 1.3zm-19.9 5.9c.3 2.5.8 5.5 1.1 6.7.2 1.2.6 3.9.9 6.2.4 2.2 1.5 8.9 2.5 15 1.1 6 2.2 12.3 2.4 14 1.1 6.6 2.8 17.2 3.2 19.7.5 2.4.1 2.8-2.8 3.2-16.8 2.8-21.6 3.7-23.8 4.1-1.4.3-6.5 1.2-11.5 2-4.9.8-10.1 1.7-11.5 2-1.4.3-3.6.7-5 1-1.4.2-4.9.9-7.9 1.5s-5.8.7-6.2.3c-.4-.5-2.3-10.7-4.4-22.8-2-12.1-3.9-23.4-4.1-25-1.9-11.1-3.3-20.9-3.1-21.1.1-.1 2-.4 4.2-.8 2.2-.3 6.5-1 9.5-1.5 3-.6 7.1-1.3 9-1.6 3.8-.6 24-4.2 28-5 1.4-.3 4.3-.8 6.5-1.1 2.2-.3 5.6-.9 7.5-1.3 1.9-.4 3.8-.6 4.1-.5.4.2 1 2.4 1.4 5zm-74 11c.2 1.6.7 4.8 1 7.1.5 2.9.4 4.3-.4 4.4-.6.1-1.4.2-1.8.3-.5.1-2.8.6-5.3 1s-5.2 1-6.1 1.2c-1.8.5-2.4-1-3.4-8.2-.3-2.1-.8-4.4-1-5.1-.2-.7 2.2-1.5 6.8-2.3 4-.6 7.7-1.3 8.2-1.4 1.4-.4 1.5-.3 2 3zm97.1 2.1c.3 2.1 1 5.4 1.4 7.5l.7 3.6-6.6 1.2c-3.6.6-7.3 1.4-8.2 1.6-1.7.5-2.5-2-3.5-10.8-.5-4.1-1.2-3.6 8.6-5.7 6.8-1.4 6.9-1.4 7.6 2.6zm-94.2 15.8c.3 1.7.9 5 1.2 7.5l.6 4.5-7.8 1.3c-4.2.6-7.9 1-8.1.8-.7-.6-2.6-13.6-2.2-14.1.3-.2 2-.7 3.9-1 1.9-.4 5.3-1 7.5-1.4 2.2-.4 4.1-.7 4.2-.7.1.1.4 1.5.7 3.1zm96.6-1.3c.1.2.4 2.1.7 4.3 1 6 .9 11-.2 11-1 .1-6 1-11.6 2.1-2.9.5-3 .2-4.5-10.3l-.6-4.2 3.9-.7c2.1-.3 5.4-1 7.3-1.4 4.2-1 5-1.1 5-.8zm-93.9 17.5c0 .5.2 1.7.4 2.8.2 1.1.7 4.1 1 6.6l.6 4.6-7 1.1c-3.8.7-7.4 1.2-7.9 1.2-1.4 0-2.1-2.2-2.8-9-.5-4.7-.3-6 .7-6 2.5-.1 9.4-1.2 9.8-1.6.8-.7 5.1-.4 5.2.3zm98.5 10.9l.6 5.1-4.9.6c-2.6.4-6.3.9-8 1.2-2.3.4-3.3.2-3.4-.7 0-.7-.2-2.2-.5-3.3-.2-1.1-.6-3.9-.9-6.1-.7-4.6-1.3-4.2 10-6 2.2-.3 4.2-.8 4.5-1.1.7-.6 1.9 4.3 2.6 10.3zm-95.2 9.1c.3 1.6.8 4.9 1.2 7.4l.6 4.6-7.7 1.5-7.7 1.4-.9-2.3c-.4-1.2-1-4.6-1.1-7.5l-.3-5.3 6-1.1c9-1.8 9.3-1.7 9.9 1.3z"/><path d="M264.8 489.7c-.2 1-.1 3.4.4 5.3.4 1.9 1 5.9 1.4 8.8.9 7.8 1.9 10.7 3.6 10.6 2.2-.2 22.8-15.7 22.4-16.9-.1-.6-5.2-2.6-11.2-4.6-15.7-5.1-16.2-5.2-16.6-3.2zm13.4 5.9c4.3 1.4 7.8 2.9 7.8 3.2-.1.4-2.6 2.5-5.7 4.7-3 2.2-6.3 4.6-7.2 5.2-1.4 1.1-1.7 1-1.7-.5-.1-1.5-.4-3.7-1.9-12.5-.3-1.5-.2-2.7.2-2.7.5 0 4.3 1.2 8.5 2.6zM473.7 482.2c-5.4 1.1-9.7 3.6-13.7 7.8l-3.5 3.8-17.5 1.7c-9.6.9-18.4 1.8-19.4 1.9-1.1.2-3.9-1.2-6.3-3-5.6-4.3-11.8-5.6-18.8-3.9-8.4 1.9-13.3 5.8-16.6 13.1-1.6 3.6-7.7 33.9-8.3 41.8-.5 4.9 2 11.6 5.6 15.3 10.4 10.8 29.8 5.2 35.3-10.2 2.4-6.6 2.8-7 5.7-5.1 6.7 4.4 16.3 2 20.4-5 3-5.2 6.4-5.9 8.9-2 2.1 3.2 8.1 6 12.6 5.9 3.6-.1 8.3-2.4 10.7-5.3 1.1-1.3 1.3-1.3 2.1 0 .5.8 2.4 3.8 4.3 6.5 12 18 39 10.2 38.4-11-.2-6.4-13.2-39.3-17.7-44.8-4.9-5.9-14.4-9.2-22.2-7.5zm13.5 7.8c4.2 2 7.1 7.1 14.3 25.9 5.7 14.9 6.6 18 6.1 21.5-2 13.2-19.8 16.7-27.2 5.3-1.2-1.8-3.6-5.6-5.3-8.5-4.4-6.9-4.9-6.9-11.4 1-1.2 1.5-3.1 2.8-4.2 2.9-5.2.4-6.6-.2-9.3-4.1l-2.7-4.1-6.5.4c-3.5.3-6.6.9-6.7 1.3-3.5 10.3-11.2 13.2-17.2 6.3-2.7-3.1-5.2-3.7-6.9-1.6-.6.7-2.4 4.8-4.1 9.1-3.4 8.7-5 11-9.5 13.1-10.9 5-21.9-1.5-21.1-12.5.3-3.7 1.5-11.2 2.1-13.3.3-1 .7-3.2 1-5 .2-1.8.8-5.5 1.4-8.2.5-2.8 1.1-6.1 1.4-7.5 2.2-12.9 14.9-20.1 25.6-14.5 1.8 1 4.2 2.6 5.3 3.6 1.9 1.8 4 2.3 7.7 2.1 4.5-.2 16.8-1.4 18.5-1.7 1.1-.2 5.4-.7 9.5-1 10.7-.9 12.1-1.4 15.8-5.7 1.9-2.1 4.3-4.3 5.5-5 5.1-2.7 11.9-2.7 17.9.2z"/><path d="M475.6 497.6c-2.1 2.1-2 4.1.3 5.4 2.3 1.2 4.7.5 5.5-1.7 1.3-3.2-3.4-6.2-5.8-3.7zM485.2 505.2c-1.6 1.6-1.5 4.5.1 5.5 2.3 1.4 3.7 1.1 5.2-1 1.3-1.9 1.3-2.3-.2-3.9-1.9-2.1-3.4-2.3-5.1-.6zM396.9 507.2c-.1.7-.1 2.5 0 4 .1 2.2-.4 2.7-3.7 3.5-6.2 1.5-5.3 6.9 1 5.8 2.4-.5 2.8-.1 3.4 2.2 1 4.9 1.3 5.3 3.3 5.3 1.9 0 3.7-4.1 2.6-5.9-.7-1.2 1.6-2.8 4.5-3.3 3.3-.4 4-4.3 1.1-5.3-1.2-.3-3-.3-4.1 0-1.1.3-2 .3-2.1-.2-.1-1.7-.8-4.5-1.3-5.9-.7-1.7-4.5-1.9-4.7-.2zM467 507.5c-1.8 2.2-.3 5.5 2.5 5.5 2.3 0 3.8-1.3 4.1-3.7.4-2.6-4.7-4-6.6-1.8zM444.6 510.3c-2.7 2-1.4 4.7 2.1 4.7 3.7 0 5.6-1.3 5.1-3.6-.4-2.4-4.6-3-7.2-1.1zM426.5 513.1c-1.2 3.6 4.9 5.5 7.5 2.4 2-2.4.4-4.5-3.4-4.5-2.7 0-3.6.5-4.1 2.1zM477.2 514.9c-.8.4-1.2 1.9-1 3.2.2 1.9.9 2.4 3.3 2.4s3.1-.5 3.3-2.4c.4-2.3-1.1-4.1-3.3-4.1-.5 0-1.6.4-2.3.9zM453.9 525.3c-.9.7-1.9 2.2-2.3 3.4-1 3.2 3.5 7.7 6.7 6.7 3.6-1.1 4.7-2.5 4.7-5.9 0-2.4-.6-3.4-2.5-4.3-3.2-1.5-4.6-1.5-6.6.1zm5.1 4.8c0 .5-.7.9-1.5.9-1.5 0-2-1.2-.9-2.3.8-.8 2.4.1 2.4 1.4zM420.4 529.6c-1.8 1.8-2.3 3-1.9 4.7 2.1 6.9 11.5 5.9 11.5-1.2 0-5.4-5.7-7.5-9.6-3.5zm4.7 3.7c-.1 1.2-1.5.9-1.9-.4-.3-.6.1-1 .8-.8.6.3 1.1.8 1.1 1.2zM490.5 575.1c-1.6.5-3.9 1.1-5 1.3-1.1.2-7.6 1.8-14.5 3.4-6.9 1.7-15.6 3.8-19.5 4.7-3.8.9-7.7 1.8-8.5 2-.8.2-8.6 2.2-17.3 4.3-8.6 2.2-16 4.2-16.3 4.5-.6.6 1.4 9.9 9.6 45.2 2.9 12.1 5.6 22.5 6.1 23.1.7.8 3.4.5 10-1.2 5-1.3 10.1-2.6 11.3-2.8 1.1-.2 5-1.2 8.6-2.1l8-2c.8-.2 6.4-1.5 12.4-3 5.9-1.5 11.6-2.8 12.5-3 2.7-.6 18.4-4.4 20.7-5.1 2.1-.6 2.1-.6-1.3-15.2-1.9-8.1-5.4-23.5-7.9-34.2-2.4-10.7-4.8-19.7-5.2-20.1-.4-.3-2-.2-3.7.2zm2.7 6.5c.4 1.6 1.1 4.2 1.4 5.9.3 1.6.7 3.2 1 3.4.5.5-8.7 3-11.2 3.1-.6 0-1.6-2.3-2.2-5.1-1.9-8.2-1.8-8.6 3.6-9.7 6.1-1.2 6.4-1.1 7.4 2.4zm-11.4 18.8c2.4 10.1 4.4 19.2 4.6 20.3.7 3 3.6 15.6 4.7 19.7.6 2.1.7 4.2.2 4.6-.8.7-38.5 10.1-46.5 11.5-3.2.6-3.8.4-3.8-1 0-.9-2.9-14.4-6.5-29.8-3.6-15.5-6.7-29.1-7-30.3-.3-1.2.1-2.1.8-2.1 1.5-.1 34.7-8.1 40.7-9.8 8.9-2.7 8.1-3.7 12.8 16.9zm-57-4.8c-.3.3 0 2.9.8 5.7.8 2.9 1.4 5.5 1.4 5.9 0 .7-11 4.2-11.5 3.6-.1-.2-.7-2.6-1.4-5.3-.7-2.8-1.4-5.7-1.7-6.6-.3-1.2.6-1.9 3.8-2.6 4.9-1.2 9.4-1.6 8.6-.7zm72.8 4.9c1.9 7.9 1.8 8.2-2.3 8.9-2.1.3-4.7.9-5.9 1.2-1.9.5-2.2-.1-3.4-5.5-.7-3.3-1.3-6.4-1.4-6.8-.1-.9 8.1-3.3 10.4-3 .9.2 1.9 2.2 2.6 5.2zm-69 13.2c.3 1.6 1 4.4 1.5 6.3.5 1.9.9 3.8.9 4.2 0 .9-10.8 3.3-11.6 2.6-.5-.6-3.4-12.1-3.1-12.4.3-.3 10.1-3.3 10.9-3.3.4-.1 1 1.1 1.4 2.6zm71.9-.5c.2.7.6 2.4.9 3.8.2 1.4.7 3.7 1.1 5.2.6 2.4.4 2.8-2.2 3.3-1.5.4-4.1 1.1-5.6 1.5-2 .7-2.9.6-3.2-.3-1.3-3.9-3.5-12.1-3.2-12.3.5-.6 7.4-2.2 9.5-2.3 1.2-.1 2.5.5 2.7 1.1zm-67.9 17.5c.3 1.6 1 4.3 1.5 6.2.4 1.9.6 3.7.4 4.2-.6.8-10.4 3.3-11 2.7-1-1-3.4-12.3-2.7-12.9.4-.5 2.3-1.1 4.2-1.4 1.9-.3 3.6-.8 3.9-1.1 1.3-1.2 3.1-.1 3.7 2.3zm72.8 3.8c.9 3.5 1.6 6.6 1.6 6.9 0 .6-11 2.9-11.5 2.4-.8-.8-3.4-12.3-2.9-12.8.4-.4 7-2.2 10.5-2.9.4 0 1.4 2.8 2.3 6.4zm-68.2 16.7l1.4 6.3-2.5 1.1c-1.5.6-4 1.4-5.8 1.7-3.1.6-3.3.4-4.2-3.1-2.5-9.4-2.4-9.9 1.7-11 7.5-2 7.9-1.8 9.4 5z"/><path d="M450 610.4c0 1.5 2.3 11.8 4.1 18.8.5 2.1 1.4 3.8 1.8 3.8.7 0 5-4.2 14.8-14.5 1.8-1.9.4-2.9-9.2-6.3-10.2-3.6-11.5-3.8-11.5-1.8zm11 4.9l6.2 2.4-5 5.3-5 5.3-1.1-4.4c-.6-2.4-1.5-5.9-2-7.7-.5-1.7-.6-3.2-.1-3.2.4 0 3.6 1.1 7 2.3zM335.5 600c-5.7 1.4-28 12.1-30.7 14.7-7.7 7.3-5 20.6 5 24.9 3.6 1.5 11.4 1.5 15.5-.1 1.4-.6 1.7-.1 1.7 2.7 0 6.1 5.5 10.9 11.6 10.2 4-.4 5.8 1.4 4.6 4.7-2.2 5.7 1.1 12.7 6.7 14.3 3.5 1 3.8 1.9 1.4 6.1-2.6 4.7-2.3 13.3.6 17.4 6.1 8.6 18.3 8.8 24.8.4 5.4-7.1 15.4-22.3 16.8-25.6 2.7-6.5.3-15.1-5.5-20-3-2.6-9.6-5.1-11.1-4.2-.4.3-5-4.9-10.4-11.5-8.3-10.4-9.5-12.5-9.1-15.1 1.1-7.2-5.2-16.9-12.2-18.9-4.2-1.1-5.4-1.1-9.7 0zm11.6 6.1c4.1 2.9 5.9 6.9 5.9 13 0 5 .2 5.5 9.7 17.3 5.3 6.6 10.1 12.4 10.7 12.8.6.4 2.4.8 3.9.8 6.9 0 12.7 6.3 12.7 13.7 0 3.5-1.2 6-8.2 16.6-4.6 6.9-9.7 13.4-11.4 14.6-5 3.4-11.1 2.4-14.7-2.4-2.6-3.5-2.3-8.1.7-15.3 3.6-8.4 3.2-9.7-2.3-9.8-6.3-.2-9-4.9-6-10.5.8-1.6.6-2.6-.7-4.7-2.6-4-4.5-5.1-8-4.5-6 1-9.6-3.3-7.5-8.9 1.6-4.2-.5-5.2-7.6-3.7-7.8 1.8-11.5 1.6-14.6-.7-6.4-4.7-6.9-12.5-1-16.9 1.4-1.1 8-4.5 14.7-7.7 13.7-6.4 18.8-7.2 23.7-3.7z"/><path d="M333 613c-1.2.7-1.2 1.2 0 3.4 1.2 2.3 1.1 2.8-.5 4.6-1.5 1.6-1.6 2.2-.5 3.5 1.2 1.4 1.5 1.4 3.1-.1 1.8-1.6 2-1.6 3.7-.1 3.5 3.2 6.4 1.3 3.8-2.4-1.3-1.9-1.2-2.3.5-4 1-1 1.9-2.3 1.9-2.8 0-1.7-3.4-2.2-4.9-.7-1.3 1.4-1.7 1.4-3.6-.4-1.4-1.3-2.5-1.6-3.5-1zM350.1 635.4c-.9 1.1-.8 1.8.4 3 2.2 2.2 4.5 2 4.5-.4 0-2.6-3.4-4.4-4.9-2.6zM334.5 639c-3.7 4.1 2.4 9.7 6.3 5.8 1.8-1.8 1.4-5.6-.7-6.8-2.7-1.4-3.5-1.3-5.6 1zm4 1.9c.3.5.1 1.2-.5 1.6-.5.3-1-.1-1-.9 0-1.8.6-2.1 1.5-.7zM357.7 645.3c-.7 1.7 1.6 4.7 3.7 4.7 1.8 0 2-1.3.6-4.1-1.2-2.2-3.5-2.5-4.3-.6zM349.5 658.9c-1.6 5.1 3 8.6 6.6 5 2.7-2.7 1.2-6.3-2.9-6.7-2.3-.2-3.2.2-3.7 1.7zm4.5 2.1c0 .5-.5 1-1.1 1-.5 0-.7-.5-.4-1 .3-.6.8-1 1.1-1 .2 0 .4.4.4 1zM369.1 658.4c-1.5 1.8-.3 4.6 1.9 4.6 2.4 0 3.3-2.6 1.4-4.5-1.9-1.8-1.9-1.8-3.3-.1zM378.4 659.5c-1.8 1.3-1.8 1.5-.2 3.1 1.8 1.8 4.8 1.3 4.8-.9 0-2.6-2.5-3.8-4.6-2.2zM367.6 668.7c-.4.9 0 2.3.9 3.2 1.3 1.4 1.7 1.4 3.2-.1 1.3-1.4 1.4-2 .3-3.2-1.6-2.1-3.6-2-4.4.1zM377.1 669.4c-.9 1.1-.8 1.8.5 3.1 1.5 1.5 1.9 1.5 3.2.1 1.7-1.7 1-4.6-1.1-4.6-.8 0-2 .6-2.6 1.4zM146.9 679.5c-.3 12.8.1 92.9.6 93.3.3.4 114.2.7 253.1.7H653v-10c.3-53.4.1-84.7-.4-85.3-.4-.3-5.7-.7-11.7-.7-10.3-.1-11 0-11.5 1.9-.2 1.2-.3 17.3-.2 35.9.2 21.9 0 33.7-.7 33.8-.5.1-103.7.2-229.2.3l-228.3.1-.2-36-.3-36h-11.7c-11.2 0-11.8.1-11.9 2z"/></svg>
