<svg version="1" xmlns="http://www.w3.org/2000/svg" width="1365.333" height="1365.333" viewBox="0 0 1024.000000 1024.000000"><path d="M426.4 9.4c-2.1 1.3-14 9.5-26.4 18.4-12.4 8.9-23.3 16.7-24.3 17.4-1 .7-8.1 5.8-15.7 11.3-7.7 5.5-19 13.6-25.2 18-6.2 4.4-11.5 8.2-11.8 8.5-.3.3-2.5 2-5 3.6-3.4 2.3-125.3 89.4-141.6 101.2-1.6 1.2-17.7 12.7-35.9 25.7-18.1 12.9-49.8 35.5-70.3 50.3-20.5 14.7-38.3 27.4-39.5 28.2-9.2 6.2-18.6 13.2-20.4 15.2-3.2 3.4-5.1 8.8-4.7 13.2.3 3.9 1.2 5.3 13.6 22.9 8.3 11.6 41.7 58.3 42.5 59.2.5.5 17.2 23.9 37.3 52 34.1 47.7 46.2 64.6 49.2 68.7.7.9 13.5 18.7 28.3 39.6 15.6 21.8 28.4 38.9 30.3 40.2 4.2 3 11.4 3.4 16.2 1 1.9-1 22.3-15.2 45.2-31.7 23-16.4 42.5-30.4 43.5-31.1 1-.7 11.7-8.3 23.8-17 12.1-8.7 24.9-17.8 28.5-20.3 9.2-6.6 72.3-51.6 73.5-52.6.6-.4 46.5-33.3 102-73 109.7-78.4 105.5-75 105.5-84.6 0-3.8-.8-5.7-4.4-10.9-4.7-6.8-58.9-82.6-60.3-84.3-.4-.6-17.2-24-37.2-52-20.1-28.1-37.9-52.9-39.5-55.1-1.7-2.3-3.8-5.2-4.6-6.4-.8-1.2-2.9-4.1-4.6-6.4-1.6-2.2-13.1-18.2-25.4-35.4-12.3-17.2-23.7-32.3-25.4-33.5-4.4-3.1-12.1-3.2-17.2-.3zm17.1 57.3c7.7 10.8 14.3 20.1 14.7 20.8.5.8-2.5 3.5-8.3 7.6-5 3.5-10.4 7.3-11.9 8.4-14.6 10.5-24.4 17.4-24.6 17.2 0-.1-6.5-9.2-14.4-20.2S384.7 80 384.6 79.3c-.1-1.3 42.1-32.2 43.9-32.2.6 0 7.3 8.8 15 19.6zm-76.2 48.8c6.2 8.8 26.4 36.9 44.7 62.5 18.3 25.6 43.2 60.2 55.2 77 36.7 51.4 59.7 83.4 61.5 85.9 1 1.3 1.8 3 1.8 3.7 0 .7-17.1 13.5-38 28.4-20.9 14.9-38.9 27.8-40 28.6-1.9 1.4-144.6 103.3-153.1 109.4l-4.2 3-29.8-41.7c-25.1-34.9-83.3-116.2-95.9-133.8-1.9-2.8-14.1-19.6-26.9-37.5-12.9-17.9-23.2-32.8-22.9-33.2.4-.7 26.6-19.7 53.3-38.6 11.5-8.1 64.5-46.1 65.5-46.9 1-.8 46.7-33.5 50.8-36.3 1.2-.8 5.8-4.1 10.2-7.3 4.4-3.1 16-11.5 25.8-18.5 9.9-7 20.4-14.6 23.5-16.9 3.2-2.3 6-4.1 6.4-4 .3.1 5.8 7.4 12.1 16.2zm112 .9c.3.7 6.5 9.6 13.8 19.7 7.2 10.1 13.2 19 13.3 19.8.1.8-5.7 5.6-12.9 10.7-7.1 5.1-13.4 9.7-14 10.1-.5.5-4.6 3.4-9.1 6.5l-8 5.7-4.2-5.7c-2.2-3.1-9-12.6-15.1-21.1l-11-15.4 22.2-15.9c12.2-8.7 22.7-15.8 23.3-15.8.7 0 1.4.6 1.7 1.4zm62.2 87.2c12.2 17.1 14.5 20.8 13.4 21.9-.8.6-11 8-22.6 16.3L511 256.9l-4-5.7c-2.2-3.1-5.7-8-7.7-10.9-10.8-14.7-15.9-21.9-17-23.9-1.2-2.2-.2-3 20.1-17.1 1.7-1.1 7.4-5.3 12.6-9.1 5.2-3.9 10-7.1 10.6-7.1.6-.1 7.8 9.2 15.9 20.5zm48 67c7.7 10.8 14.3 20.2 14.7 20.9.5.8-.7 2.2-3.5 4.1-2.3 1.6-4.6 3.2-5.2 3.7-1.2.9-11.9 8.6-24.9 17.9-5.2 3.8-9.9 6.8-10.4 6.8-1.2 0-29.4-38.9-29.6-40.7-.1-1.2 42.1-32.2 43.9-32.2.6 0 7.3 8.8 15 19.5zm-483.1 39.2l14.5 20.3-7.2 5.2c-4 2.9-9.9 7.2-13.2 9.6-3.3 2.3-10 7.1-14.9 10.7-5 3.5-9.3 6.4-9.6 6.4-.5 0-4.6-5.1-7.8-9.7-.7-1-6-8.5-11.9-16.6-9-12.6-10.4-15.1-9.2-16.2 3.5-3.5 43.5-31.3 44.1-30.7.4.4 7.2 9.8 15.2 21zm46 64.3c6.9 9.6 13.4 18.5 14.5 19.9 1.2 1.4 2.1 3 2.1 3.6 0 .6-2.4 2.7-5.2 4.8-2.9 2.1-12.8 9.1-22 15.7-9.1 6.5-17 11.9-17.5 11.8-.4 0-4.6-5.5-9.3-12.1-4.7-6.7-11.3-16.1-14.6-20.9l-6.2-8.7 22.6-16.1c12.4-8.8 22.7-16 22.9-15.8.1.2 5.9 8.2 12.7 17.8zm53.4 74.4c6.3 8.8 11.5 16.5 11.6 17.1.1 1.1-42.7 32.4-44.2 32.4-.6-.1-27.2-36.6-29.4-40.5-.5-.8 5.9-6 19.9-16.1 11.4-8.2 21.6-15.4 22.7-16 1.7-1 2.3-.7 5 3 1.6 2.2 8.1 11.3 14.4 20.1zm38.7 54c3.1 4.4 6.3 8.9 7.1 10 .8 1.1 4.5 6.3 8.4 11.5 3.8 5.2 7 9.7 6.9 10 0 .3-3.6 3-8 6s-8.6 6-9.2 6.5c-2 1.8-26 18.7-27.2 19.1-1.1.5-2.1-.7-8.7-10.1-1.9-2.8-7.6-10.8-12.7-17.9-7.8-10.7-9.1-13-8-14.1.8-.8 10.9-8.1 22.4-16.3 16-11.5 21.3-14.8 22.2-13.9.6.7 3.7 4.8 6.8 9.2z"/><path d="M374.8 253.5c-.2.2-2.9.6-5.9.9-3.1.3-7.2.8-9 1.1-4.3.6-42.6 5.6-45.9 6-11.8 1.3-14.7 1.7-16 2.1-.8.2-4 .6-7 .9-3 .3-8.2 1-11.5 1.5-3.3.5-8.7 1.2-12 1.5-3.2.4-7.6 1.5-9.7 2.6-6.9 3.5-11.4 13.7-8.9 20.2.6 1.5 13.1 19.5 27.8 40 14.6 20.4 28.4 39.7 30.5 42.7 7.5 11 11.6 14 18.5 14 4.2 0 10.8-3.1 13.6-6.3 1-1.2 7.1-12.9 13.6-26.1 6.5-13.3 18.2-37.1 26.1-52.9 11.4-23.2 14.2-29.7 14.2-33.1.2-8.1-6-14.6-14.2-15.2-2.1-.1-4-.1-4.2.1zm-38.1 60.6c-10.6 21.7-12 24-13.2 22.3-.7-1.1-7.4-10.5-14.9-20.9l-13.5-19 16.7-2.2c9.2-1.2 19.4-2.5 22.7-2.8 3.3-.4 6.2-.9 6.4-1.1.2-.2 2.1-.4 4.1-.4h3.6l-11.9 24.1zM721.9 342.4c-.2.2-3.4.6-7.1 1-8.3.8-21 4.7-30.2 9.3-6.7 3.3-19.2 11.4-23.1 15-1.1 1-5.6 4.7-10 8.3-4.4 3.5-8.2 6.7-8.5 7-.3.3-1.4 1.3-2.6 2.1-1.1.8-4.1 3-6.5 5.1-2.4 2-13.4 10.9-24.4 19.8-11 8.9-20.9 16.9-22 17.8-1.1.9-5.4 4.4-9.5 7.7s-7.7 6.2-8 6.5c-.3.3-2.7 2.3-5.5 4.4-25.5 20.2-40.6 49-40.6 77.6 0 21.9 10.3 42.2 28.5 55.9 13.1 9.9 26.4 14.2 45.1 14.7 20 .4 29.2-2.3 51.7-15.3 7.1-4.2 13-7.4 13.2-7.2.2.2 1.3 3.6 2.4 7.4 1.8 6.1 7 15.4 11.4 20.5 3 3.5 10.8 9.1 15.9 11.4 15.8 7.2 33.9 6.6 50.6-1.6 6.4-3.1 6.4-3.1 8.4-1.2 1.7 1.8 1.8 2.4.7 5.4-2.2 6-1.6 24.4.9 32.5 6.9 21.9 25.9 36.4 48 36.8 6.3.2 8.3.5 8.3 1.6 0 .7-1.6 7.4-3.6 14.8-1.9 7.4-3.8 14.5-4 15.7-1.1 4.7-1 23.5.1 30.1 5.4 30.5 28.7 53.6 58.9 58.3 29 4.6 61.9-9.7 82.3-35.8 7.4-9.5 10.4-15.5 28.8-57.5 9.2-20.9 17.5-39.8 18.5-42 12.3-26.5 21.6-49.1 24.2-59 2.7-10.4 3.3-32.7 1.2-43-3.1-14.2-10.4-28.7-20.1-39.4-9-10.1-26.7-20.4-38.7-22.7-1.2-.2-3.2-.6-4.6-1-1.4-.3-7.3-.7-13.1-.9-9.7-.4-22.2 1.2-30.7 3.9-1.3.5-3.5-.6-7.4-3.6-3-2.4-6.8-5.3-8.4-6.5-1.6-1.2-10.2-7.7-19.1-14.5-8.8-6.8-25-19.1-35.8-27.3-10.9-8.3-22.1-16.9-24.9-19.1l-5.2-4.2.1-6.3c.2-14.2-3.3-27.8-10.3-41.3-5.1-9.6-15.8-21.8-24.3-27.4-12.2-8.1-26.5-12.8-41.6-13.7-4.9-.3-9.1-.4-9.4-.1zm17.5 40.7c11.2 3.8 19.7 11.4 25.2 22.4 4.3 8.9 5.5 15.1 5.2 28.4-.2 10.1-.1 11 2.7 16.6 2.1 4.2 4.6 7.3 8.5 10.3 3 2.4 6.2 4.9 7 5.6.9.7 13.9 10.6 29 22.1 15.1 11.5 37.2 28.3 49 37.4 11.8 9 23.4 17.3 25.8 18.3 6.6 3 12.7 2.9 23.3-.4 20.5-6.3 37.5-3.2 50 9.2 6.6 6.5 9 10.3 11.9 18.8 3.7 11.2 3 28.4-1.6 38.9-.8 1.8-2 4.8-2.8 6.6-.8 1.7-2.3 5.2-3.4 7.7s-2.9 6.5-4 9-3.5 7.9-5.2 12c-1.8 4.1-4.8 10.8-6.6 14.8-1.9 4-3.4 7.4-3.4 7.7 0 .2-1.3 3.3-2.9 6.7-1.5 3.5-8.1 18.4-14.6 33.3-6.5 14.8-13.7 29.9-16 33.5-7.4 11.6-20.3 20.6-33.3 23.3-7.1 1.5-8.3 1.5-18.2-.4-15.4-2.9-27.5-19.7-27.1-37.4.1-6.6.3-7.9 2.1-14.5.7-2.5 1.4-5.2 1.5-6 .2-.8 2.7-10.1 5.5-20.5 2.8-10.5 5.4-19.9 5.7-21 .3-1.1.7-4.7.9-8 .6-7.5-2.3-13.7-8.3-17.7-7.7-5.2-16.1-4.7-26.2 1.6-10.8 6.8-23.8 4.3-28.9-5.5-3-5.9-3.1-13.9-.4-20 5.5-12.3 4.8-22.1-2-28.5-5-4.6-23.9-18.9-27.5-20.8-7.5-3.8-16.1-2.3-24.8 4.4-6.5 5-11.3 7-17 7-13.8 0-21.9-12.2-17.7-26.5 3.9-13.5 1.2-22.5-8.6-28.2-4.9-2.9-11.9-3.3-17.4-1-1.8.8-14.5 7.9-28.3 15.9-13.7 7.9-26.8 15.1-29.1 16-10.2 4.1-25.4 3-35.7-2.4-13.9-7.4-20.8-18.9-20.2-33.5.7-16.5 9.6-30.6 28.6-45.5 3-2.3 5.6-4.5 5.9-4.8.3-.3 7.5-6.1 16-13 8.5-6.8 16.9-13.5 18.5-14.9 1.7-1.4 4.9-4 7-5.8 2.2-1.7 14.6-11.7 27.5-22.3 12.9-10.5 26.4-20.8 30-22.9 14.6-8.6 30.4-10.7 44.4-6z"/><path d="M722.6 407c-4.6 1.4-8.8 4.8-13.5 11l-4.4 5.9-5.7-4.1c-6.5-4.5-12.5-5.8-18.4-3.8-8.2 2.7-14 10.8-13.9 19.6.1 6.5 1.3 8.8 8 15l5.6 5.1-4.1 5.4c-7.5 10-8.9 16.7-5.1 24.6 2.7 5.5 8.8 9.3 14.9 9.3 6.7 0 12.5-3.4 18.2-10.6 2.7-3.5 5.2-6.4 5.4-6.4.3 0 3.1 1.8 6.2 3.9 6.7 4.7 10.6 5.5 17 3.6 8-2.4 13.9-9.4 14.7-17.5.8-7.9-2.3-13.3-10.9-19.6l-2.9-2.1 3.4-4.7c8.3-11.5 9.8-18.1 5.9-26.1-3.3-6.8-12.7-10.7-20.4-8.5zM779 491.3c-8.2 2.7-14.9 13.7-13.6 22.2 1.1 6.9 6.6 13 17.6 19.3 7.4 4.3 21 .8 24.2-6.3.6-1.4 1.5-2.5 1.9-2.5 1 0 2.3-7.7 2-11.5-.2-1.7-1-4.5-1.9-6.4-1.5-3.3-10-10.8-15.5-13.7-3.8-2-10.4-2.5-14.7-1.1zM825.3 525.5c-6.3 1.9-9.9 5-12.8 11.1-4.3 9.1-2.4 17.2 5.7 23.5 2.4 1.9 4.9 4 5.6 4.7 6.8 6.4 19.7 5.7 26.3-1.5 9.9-10.6 8.1-22.2-4.9-32.1-7.9-6-13.4-7.6-19.9-5.7zM717.2 541.7c-9.8 4.8-11.6 20-3 25.3 4.1 2.5 7.1 2.5 12.4.1 7.7-3.5 11.6-12.7 8.4-19.8-3.1-7-10.4-9.3-17.8-5.6zm8.6 11.4c.4 2.1-2.6 5.1-4.7 4.7-2-.4-2.6-3.5-1-5.4 1.6-1.9 5.3-1.4 5.7.7zM931.7 562.4c-11.1 4.1-17.9 16.1-15.5 27.1 3.4 15.3 21.2 20.5 33.6 9.9 5.9-5 8.5-10.5 8.6-18 .1-5.1-.4-6.8-2.9-10.9-4.9-7.9-15-11.4-23.8-8.1z"/><path d="M886.9 571.9c-15.6 6-20.8 26.9-9.2 37.1 4.5 4 7.6 5.2 13.4 5.1 19.4-.1 30.3-23.9 17.5-37.9-5-5.5-13.9-7.3-21.7-4.3zM807.7 607.5c-4.8 1.6-7.4 4-9.8 8.7-2.4 4.8-2.4 10.4.1 14.5 7 11.5 25.1 4.7 26.7-10.1 1.1-9.7-7.7-16.4-17-13.1zm6 12.1c.9 2.4-1 4.9-3.8 4.9-2.7 0-3.7-2.8-1.9-5 1.7-2 4.9-1.9 5.7.1zM935.4 607.5c-12.8 3.8-20.4 19.2-15.2 30.7 2.4 5.4 4.4 7.5 9.2 10 8.2 4.2 19.3 1.5 26-6.4 14.5-16.9.7-40.6-20-34.3z"/><path d="M890.7 616.6c-9 3.1-15.4 11.3-16.4 20.8-.5 4.7-.2 6.4 2.1 11.1 4.8 9.6 14.5 13.3 25 9.4 18.2-6.7 21.2-31.9 4.9-40.3-4.3-2.1-11-2.6-15.6-1zM408.5 589c-20.3 3.6-86.4 14.8-92 15.6-1.6.3-5.2.9-8 1.4-2.7.5-6.6 1.2-8.5 1.5-1.9.3-5.7 1-8.5 1.5-2.7.6-6.3 1.2-8 1.4-9.6 1.2-17.1 2.9-18.2 3.9-.8.8-.9 2.6-.3 5.7.4 2.5 1.1 6.1 1.4 8 .3 1.9.8 4.6 1.1 6 1 4.8 1.6 8.5 1.9 11 .2 1.4.6 4.1 1 6 .7 4 .8 4.9 3.7 21.5 1.1 6.6 2.9 17.4 4.1 24 1.1 6.6 2.1 12.8 2.2 13.8.5 4-.6 4.1 45.6-3.7 1.9-.4 4.6-.8 6-1.1 1.4-.3 4.1-.7 6-1 1.9-.3 6.2-1 9.5-1.6 3.3-.6 7.4-1.3 9-1.6 1.7-.2 4.1-.6 5.5-.9 9.3-1.6 26.1-4.4 29.4-5 2.1-.3 4.8-.8 6-1 1.1-.2 7.7-1.3 14.6-2.4 6.9-1.1 14.5-2.4 17-2.9 2.5-.6 6.2-1.3 8.3-1.6 3.4-.5 3.7-.9 3.7-3.8 0-1.8-.5-5-.9-7.2-.5-2.2-1.2-5.8-1.6-8-1.6-10.6-2.6-16.5-3-17.7-.2-.7-.6-3.1-.9-5.3-.3-2.2-2-13-4-24-1.9-11-3.8-22.3-4.2-25-1.1-7.9-2-9.5-5.1-9.4-1.6.1-7.3.9-12.8 1.9zm11.6 4.5c.1.8.2 1.8.3 2.2.5 2 2 12 2 13.8.1 2-1.4 2.5-10.9 3.9-2.2.3-5.4.8-7.1 1.1-2.9.5-3.2.3-3.8-2.7-.3-1.8-.8-4.4-1.1-5.8-.3-1.4-.8-4.4-1.1-6.6l-.5-4.1 8.8-1.5c11.7-2.1 13.3-2.1 13.4-.3zm-26.5 12.1c.8 4.9 1.7 10 2 11.4.2 1.4.8 5.2 1.4 8.5.5 3.3 1.2 7 1.4 8.1.2 1.2.7 3.9 1 6 .4 2.2.8 4.6 1.1 5.4.2.8.6 3.3.9 5.5.3 2.2 1.8 11.5 3.4 20.7 3.2 18.9 3.8 17.1-5.8 18.4-3 .4-5.7.8-6 .9-.3.1-2.5.5-5 .9-2.5.5-5.2 1-6 1.1-.8.2-3.7.6-6.4.9-2.7.4-5.2.9-5.5 1-.3.2-2.8.7-5.6 1-2.7.4-6.8 1.1-9 1.6s-5.8 1.1-8 1.4c-2.2.2-9.6 1.4-16.5 2.7-19.4 3.4-17 5.1-20.2-14.1-4.1-24.4-3.7-22.4-5.3-30-.3-1.4-.7-4.1-.9-6-.3-2-.7-4.7-1-6-.3-1.4-.8-4.1-1.1-6-.2-1.9-.9-6.2-1.5-9.5-1.4-7.5-2.8-17-2.6-17.1 0-.1 6.2-1.1 13.6-2.4 17.2-2.9 15-2.5 32.5-5.5 8.3-1.4 16.6-2.8 18.5-3.1 1.9-.3 4.2-.7 5-.9.8-.2 3.5-.7 6-1 2.5-.4 7.4-1.2 11-1.9 3.6-.7 6.6-1.1 6.8-1.1.1.1.9 4.2 1.8 9.1zm-99.7 16.1c.7 4.3 1.4 8.5 1.7 9.4.4 1.4-1.1 2-8.3 3.3-4.8.9-9.8 1.8-11 2-2.4.5-2.5.2-3.8-6.9-2.1-11.5-2.2-12.5-.9-12.5.8 0 1.7-.1 2.2-.2 2.9-.9 13.3-2.6 15.8-2.7 3-.1 3-.1 4.3 7.6zm130.1-5.5c0 .2.7 4.1 1.5 8.8 1.9 10.8 1.9 10.5-.7 10.8-1.3.1-5.9.8-10.3 1.7-4.4.8-8.3 1.5-8.6 1.5-.6 0-2.3-7.6-3.4-15.6l-.6-4.1 8.8-1.5c8.6-1.5 13.3-2.1 13.3-1.6zm-126 29.6c.7 4.2 1.4 8.4 1.5 9.4.3 1.3-1.3 1.9-8.3 3.2-4.8.9-9.7 1.8-10.9 2-1.8.4-2.4-.1-2.8-2-.3-1.3-.7-3.4-1-4.7-.2-1.3-.7-4.6-1.1-7.4l-.6-5.2 3.9-.6c2.1-.4 4.9-.8 6.3-1.1 1.4-.2 3.8-.7 5.5-1 1.6-.3 3.1-.7 3.3-.9 1.5-1.5 3.1 1.7 4.2 8.3zm130.4-3c2.4 12.1 2.8 15.4 2 16.2-.5.5-3.1 1.2-5.9 1.6-2.7.3-5.9.8-7 1-1.1.2-3.4.7-5.1 1l-3 .5-1.2-6.3c-2.5-14-2.5-13.8-.2-13.8 1.1 0 2.3-.1 2.8-.2 1.5-.5 12.8-2.4 14.9-2.6 1.6-.1 2.3.5 2.7 2.6zM301.3 665c.3 1.9 1 6.2 1.6 9.4 1.2 6.6 1.2 6.5-1.5 7-2.4.4-16.4 2.7-18.3 2.9-.7.1-1.5-.7-1.7-1.8-.1-1.1-.8-5.3-1.5-9.3-.6-4-1-7.4-.7-7.7.2-.2 2.1-.7 4.1-1 2-.3 6.7-1.2 10.4-1.9s6.9-1.2 6.9-1.2c.1.1.4 1.7.7 3.6zm130.7-.8c.1.2.7 3.9 1.5 8.3 1.8 9.9 1.8 11.2.3 11.2-.7 0-2.9.4-4.8.7-10.9 2-15.2 2.7-15.5 2.4-.3-.4-3.5-17.9-3.5-19.2 0-.5.2-.7.5-.4.3.3 4.2-.3 8.8-1.2 7.6-1.7 12.7-2.3 12.7-1.8zm-126.9 23c0 .7.2 2 .4 2.8 1 4.5 2.4 14.4 2.1 14.7-.2.2-1.6.6-3.2.9-1.6.2-4 .7-5.2 1-1.3.2-4.3.7-6.5 1-2.3.3-4.7.7-5.4.9-1.1.4-1.8-1.6-2.8-8-.3-1.7-.7-4.9-1.1-7.1l-.6-4.2 7.3-1.2c4.1-.6 7.9-1.3 8.4-1.5 2.4-.9 6.5-.4 6.6.7z"/><path d="M336.9 635.4c-.5.5 1.1 12.7 2.6 19.6.2.8.6 3.8 1 6.7.4 2.9 1.3 6 2 7 1.5 2 2.1 1.7 18.5-10.5 5.2-3.9 10.5-7.8 11.8-8.7 1.2-.9 2.2-2.2 2.2-2.9 0-.8-6-3.2-15.2-6.1-15.2-4.8-21.7-6.2-22.9-5.1zm13.7 7.5c3.2 1 8.1 2.4 10.7 3.1 2.6.7 4.6 1.7 4.5 2.1-.2.5-4.6 4-9.8 7.8l-9.5 7-1.1-6.7c-.6-3.7-1.5-8.6-1.9-11-.9-4.9-.9-4.9 7.1-2.3zM621 626c-8.6 1.5-17.1 6.4-21.2 12.3-1.3 1.8-2.7 3.3-3.3 3.4-.5 0-4.4.4-8.5.7-4.1.4-8.6.9-10 1.1-1.4.2-5.6.7-9.5 1-3.8.3-8.6.7-10.5 1-13.1 1.6-14.6 1.6-16.5-.5-5.1-5.6-16.5-9.3-26.1-8.4-13.2 1.2-25.7 12.4-27.9 24.9-.4 2.2-.9 4.9-1.2 6-.2 1.1-.8 4.2-1.4 7-.5 2.7-1.2 6.6-1.5 8.5-.3 1.9-.7 4.2-.9 5-.2.8-.7 3.1-1 5-.3 1.9-1.1 6-1.7 9-2.5 12.3-.1 22.3 6.9 28.8 5.5 5 9.7 6.5 18.4 6.5 6.2.1 8.5-.4 13.1-2.6 8.4-4.1 12-8.3 16.3-18.7 2.1-5 4.1-8.7 4.4-8.2.3.5 2.6 1.9 5 3.2 9.3 4.7 21.6.8 26.5-8.5 1.1-2.2 2.1-4.1 2.1-4.2 0-.1 1.4-.4 3-.6 2.5-.3 3.6.3 6.3 3.4 8 9.2 21.3 10 29.8 1.8l3.3-3.1 4.4 6.8c8.1 12.7 14.3 16.6 26.2 16.7 11.4.1 19.6-4.5 25.3-14.3 2.3-3.8 2.7-5.7 2.7-12 0-7.1-.5-8.7-8.4-28.5-4.6-11.6-9.4-23-10.7-25.5-3.9-7.9-14-15.6-21.8-16.6-1.7-.3-4-.6-5.1-.8-1.1-.2-4 0-6.5.4zm15.4 10.1c2.6 1.2 6 3.8 7.6 5.7 1.8 2.2 6.8 13.2 12.6 27.7 8.5 21.2 9.6 24.5 9.1 28.7-1.2 13.4-16.2 21.4-28.8 15.4-4.7-2.2-6.3-4.1-13.3-15.3-3.6-5.7-6.5-9.3-7.9-9.7-2.5-.6-6.7 1.8-6.7 3.9 0 .8-1.3 2.9-3 4.6-2.4 2.6-3.7 3.1-7.7 3.2-5.9.2-9.7-2-11.7-6.7-1.6-3.8-3.4-4.7-8.6-4.1-1.9.3-5 .5-6.8.6-3.5.2-7.2 3.7-7.2 6.8-.1 2.1-2.9 5.5-5.7 7-1.2.6-4.1 1.1-6.4 1.1-3.7 0-4.7-.5-8.3-4.5-6.9-7.4-9.6-6.1-14.5 7.3-3.8 10.2-5.3 13.1-8.3 15.9-6.8 6.4-19.3 7.9-26.3 3.2-4.3-2.9-7.5-9.1-7.5-14.6 0-5.8 8.7-51.9 10.4-55.1 4.3-8.2 12.2-12.7 22.1-12.6 7.5 0 11 1.3 15.8 5.8 4.2 3.9 6.5 4.8 10.5 4.2 2-.3 7.1-.8 11.2-1.2 4.1-.3 8.6-.7 10-.9 1.4-.1 5.7-.5 9.5-.9 3.9-.3 8.6-.9 10.5-1.1 1.9-.3 5.7-.7 8.5-1 4.9-.5 9.5-2.7 9.5-4.4 0-2.1 7.5-8.1 12.2-9.9 6.4-2.4 13-2.1 19.2.9z"/><path d="M623.4 646c-5.1 2-3.4 8.9 2.2 9 4.4 0 6.2-6 2.6-8.8-1.8-1.4-1.9-1.4-4.8-.2zM636.3 656.3c-1.2.5-2.4 1.8-2.7 3-.5 2 .8 5.6 2.2 5.8.4 0 1.5.2 2.4.4 4.9.9 7.1-7.1 2.6-9.2-1.5-.7-3-.7-4.5 0zM517.1 658.6c-2 1.4-2.3 2.3-1.8 5.9l.4 4.3-4.8.6c-4.1.6-5 1.1-5.5 3.2-.9 3.5.7 4.7 6.3 4.6l4.9-.2.2 3.7c.3 4.2 1.7 6.3 4.2 6.3 2.8 0 4.2-2.6 3.9-7.1-.3-4.2-.3-4.2 3.3-4.4 4.1-.1 6.8-1.9 6.8-4.6 0-2.5-1.8-3.4-6.9-3.4-4.3 0-4.4-.1-4.7-3.4-.1-1.9-1.1-4.2-2.1-5.3-1.7-1.7-2-1.7-4.2-.2zM610.6 660.1c-1.9 2.8-.7 6.1 2.9 7.4 2.3.8 3 .6 4.6-1.3 1.7-2.2 1.6-4.3-.4-7-1.5-1.9-5.4-1.4-7.1.9zM579.8 663.1c-2.1 1.2-2.3 4-.6 5.7 1.8 1.8 7.3 1.4 9.8-.6 1.9-1.6 2.1-2.2 1.1-4-.9-1.7-2.1-2.2-4.9-2.2-2 0-4.5.5-5.4 1.1zM556.9 665.8c-4.6 3.2-.4 7.5 6 6.1 4.9-1 6.3-3.6 3.5-6.3-1.8-1.9-6.7-1.8-9.5.2zM625.4 669c-4.4 1.8-2.9 9 1.9 9 4.9 0 7-4.7 3.8-7.9-2.3-2.3-2.6-2.4-5.7-1.1zM595.3 682.2c-3.2.8-6.2 4.8-5.7 7.5.1.7.2 1.7.3 2.3 0 .5 1 1.9 2.1 3 2.5 2.5 8 2.6 10.9.2 6.5-5.3.6-15.3-7.6-13zm3.8 8.1c-.5.5-1.7.7-2.6.3-1.4-.5-1.5-.9-.5-2.1 1-1.2 1.6-1.3 2.7-.4.9.8 1 1.6.4 2.2zM549.3 687c-2.7 1.1-4.3 4-4.3 7.8 0 6.2 8.7 9.2 13.4 4.5 6.3-6.3-.8-15.8-9.1-12.3zm5.3 6.1c1 1.7-1.3 3.6-2.7 2.2-1.2-1.2-.4-3.3 1.1-3.3.5 0 1.2.5 1.6 1.1zM644.9 748.5c-.3.2-1.6.6-2.9.9-1.4.2-8.1 1.8-15 3.5-6.9 1.6-13.6 3.2-15 3.5-3.4.7-3.4.7-28 6.6-11.8 2.8-27.1 6.4-34 8-17.9 4.1-18.3 4.3-17.5 8.3.7 3.5 4.4 19.1 7.7 32.7 1.1 4.7 2.2 9.4 2.4 10.5.2 1.1 2.4 10.3 4.9 20.5 2.5 10.2 4.8 19.7 5.2 21.2.6 3.3 1.4 3.3 10.3 1.2 3.6-.9 7.2-1.7 8-1.9 10.4-2.4 19.1-4.5 38.5-9.1 12.6-3.1 24.7-5.9 27-6.4 2.2-.5 4.9-1.1 6-1.3 1.1-.3 7.2-1.7 13.5-3.2 6.3-1.5 11.9-3.1 12.5-3.6.6-.6.4-3-.4-6.7-1.9-8.3-4.2-18.5-4.6-20.2-1.6-6.4-7.9-32.6-8.9-37-.7-3-2.3-10.1-3.7-15.8-1.5-6.8-2.9-10.7-4-11.2-.9-.5-1.8-.7-2-.5zm2 13.1c1.2 4.8 2 8.8 1.8 9.1-.3.2-3.9 1.2-8 2.2l-7.6 1.8-2-8.9c-2.2-9.5-2.4-10.4-1.6-9.6.3.2 3.5-.4 7.2-1.3 3.8-1 7.1-1.8 7.4-1.8.4-.1 1.6 3.8 2.8 8.5zm-20.4 3.1c.9 3.8 1.9 7.9 2.1 9.3.3 1.4.7 3.3 1 4.2.3.9.7 2.6.9 3.7.3 1.2.7 2.9.9 3.8.3 1 3.3 14 6.9 29l6.4 27.1-3.1.7c-1.7.5-3.3.8-3.6.9-.3.1-2.3.6-4.5 1.1-2.2.4-4.4.9-5 1.1-.5.1-5.7 1.4-11.5 2.7-9.1 2.1-26 6.1-36.8 8.7-2.3.6-3.5.4-3.7-.3-.8-2.4-14.3-58.4-16-66.7-.2-.8-1-4.6-1.9-8.4-.9-3.8-1.3-7.2-.9-7.6.5-.4 7.8-2.3 16.3-4.3 8.5-2.1 21.4-5.1 28.5-6.8 7.2-1.7 14.1-3.3 15.5-3.6 1.3-.2 2.7-.6 2.9-.9.2-.2 1.2-.4 2.1-.4 1.3 0 2.2 1.7 3.5 6.7zm-73.1 13.8c.4 1.9.7 3.8.8 4.2.1.5.7 2.8 1.5 5.2.7 2.4 1.2 4.5 1.1 4.6-.2.1-3.8 1.1-8 2.2-8.6 2.2-8.3 2.3-9.4-4.5-.3-2-1-4.6-1.5-5.9-2.1-5.7-1.5-6.2 8.6-8 1.7-.3 3.2-.7 3.4-.9 1.4-1.3 3 .1 3.5 3.1zm97.5.2c1.9 7 3.2 13.6 2.8 13.9-.2.2-3.6 1.3-7.6 2.3l-7.2 1.9-.8-2.1c-.5-1.2-1.5-5.3-2.4-9-1.1-5.1-1.2-6.9-.4-7.2 1.6-.4 6.6-1.6 9.7-2.2 1.3-.2 2.7-.6 2.9-.9 1.2-1.1 2.1-.1 3 3.3zm-91.1 27c1.2 4.8 2 8.8 1.9 8.9-.1.1-3.7 1.1-8 2.2l-7.7 2-.6-2.7c-.3-1.4-1-4-1.4-5.6-.5-1.7-1.1-4.6-1.4-6.5l-.5-3.6 6.7-1.6c3.7-.8 7.2-1.6 7.8-1.7.6 0 2.1 3.8 3.2 8.6zm97.4-.6c2.1 9 2.2 10.6.6 10.6-1.9.1-6.8 1.1-10.6 2.2-2.4.7-3.4.7-3.7-.2-.7-2.1-2.7-10.1-3.2-12.6-.2-1.3-.5-2.6-.6-3-.1-.3.1-.8.5-1 1.7-.9 13.4-3.9 14.3-3.7.5.1 1.7 3.6 2.7 7.7zm-93.8 15.6c1.3 4.4 3.6 15.6 3.3 16-.2.1-3.6 1.1-7.6 2.1l-7.3 1.9-.9-2.4c-.5-1.3-1.1-3.5-1.3-4.9-.3-1.4-1-4.1-1.7-6.1-.6-1.9-.7-3.8-.3-4.3.7-.6 11.3-3.5 14.6-3.9.4-.1.9.7 1.2 1.6zm99.2 6.8c1.4 6 1.7 8.8 1 9.4-.9.7-14.5 4.2-14.7 3.8 0-.1-.2-.9-.4-1.7-.2-.8-1.1-4.2-1.9-7.5-1.5-6-2-10.3-1.1-9.3.3.2 3.5-.4 7.2-1.3 3.8-1 7-1.8 7.4-1.8.3-.1 1.4 3.7 2.5 8.4zm-92.3 22.4c1 4.5 1.7 8.5 1.4 8.7-.6.7-11.7 3.3-13.8 3.4-1.3 0-2.1-1.9-3.4-7.8-.9-4.2-1.8-8.1-1.9-8.6-.1-.9 13.1-4.6 14.9-4.2.5.2 1.8 4 2.8 8.5z"/><path d="M588 794.4c-.6.8.2 5.5 2.1 13.1 1.6 6.6 2.9 12.7 2.9 13.6 0 .8.7 2.4 1.4 3.5 1.4 1.8 2 1.4 11.1-7.6 9.6-9.5 12.2-12.7 11.1-13.7-.3-.3-6.7-2.7-14.1-5.3-9.8-3.4-13.8-4.4-14.5-3.6zm14.8 8.2l8.2 2.8-6.7 6.8c-3.7 3.7-6.9 6.6-7.1 6.3-1.2-1.1-4.8-19.6-3.8-19.2.6.2 4.8 1.7 9.4 3.3zM432.8 781.6c-6.6 2-38 16.9-41.2 19.5-10.9 9.1-8.3 25.9 5.2 32.8 5.5 2.8 9.9 3.2 17 1.6 3.5-.8 6.5-1.5 6.8-1.5.2 0 .4 1.4.4 3 0 8.6 6 14.4 15.1 14.4 6.6.1 8.6 1.7 6.9 6.1-3.2 8.5 2.8 19 11.3 19.7 1.5.1 2.7.3 2.7.5 0 .1-1.2 2.8-2.6 6-4.6 10-4.2 17.7 1.2 24.9 6.7 9.1 22.5 10.1 30.4 2.1 3.1-3.1 22-29.9 24.4-34.6 7.2-13.8-1.6-30.4-17.6-33.4-6-1.2-6.2-1.3-13-9.7-3.9-4.7-7.7-9.4-8.6-10.5-9.3-11.2-9.2-11.1-8.8-15.5.8-8.8-4-18.1-11.9-23-3.3-2-14-3.5-17.7-2.4zm16 8.7c5.4 3.5 7.6 8.6 7.4 16.8l-.2 6.5 7.7 9.5c4.2 5.2 8.2 9.9 8.7 10.5.6.7 2.7 3.1 4.6 5.5 5.6 7 7.8 8.9 10.2 9 8.5.2 15.1 4 17.9 10.3 2.9 6.5 1.9 12.3-3.5 20.3-20.6 30.8-23.8 33.7-33.6 31.1-6.2-1.7-11-8-11-14.4 0-1.5 1.8-6.5 4-11.1 2.2-4.7 4-9.1 4-9.8 0-2.2-2.6-3.5-6.8-3.3-5.4.2-8.9-2.2-9.8-6.7-.6-3.5-.4-4.7 1.8-7.7.9-1.3.9-2.2-.1-4-2.4-4.5-6.2-8-8.4-7.9-8.4.6-9.8.4-12.3-2-2.6-2.5-2.7-2.8-1.2-12.3.6-3.6-2.4-4.1-12.1-1.9-10.1 2.3-13.9 2-19-1.7-8.3-5.8-8-18.1.6-23.1 2.2-1.4 29.6-13.6 36.3-16.2 3.2-1.3 11 0 14.8 2.6z"/><path d="M428.3 799.6c-.3.9.2 3 1.2 4.6 1.7 2.9 1.7 3-.9 5.7-2.3 2.4-2.4 2.9-1.2 4.6 1.3 1.8 1.4 1.8 4.9-.2l3.5-2.1 1.9 2.4c1 1.3 2.6 2.4 3.6 2.4 2.3 0 3.4-2.8 1.9-4.9-2.5-3.3-2.5-4.4-.4-6.2 2.6-2 2.9-5.4.6-6.3-.9-.3-2.7.3-4.2 1.4l-2.5 2.1-2.7-2.6c-3-2.9-4.8-3.2-5.7-.9zM452.1 828.4c-1 1.2-.9 2 .4 3.9 2.1 3.3 4.1 4 6 2.1 1.6-1.6 1.3-2.6-1.3-5.7-1.8-2.1-3.6-2.2-5.1-.3zM432.7 832.1c-4.2 2.5-3.6 9.4.9 10.5 3.3.8 5.9-.3 7.2-3.1 2.5-5.4-2.9-10.4-8.1-7.4zm4.1 5c-.2.6-.8 1-1.3 1s-1.1-.4-1.3-1c-.2-.6.4-1.1 1.3-1.1s1.5.5 1.3 1.1zM463.1 841.4c-2.1 2.6 2.2 8.2 5.3 7 2.2-.8 2-4-.4-6.4-2.4-2.4-3.4-2.5-4.9-.6zM452.5 858.6c-2.5 2.5-1.6 7.5 1.7 9.3 5.4 3 10.8-3.2 7.3-8.5-1.8-2.8-6.5-3.2-9-.8zm5.5 4.5c0 .5-.7.9-1.5.9-1.5 0-2-1.2-.9-2.3.8-.8 2.4.1 2.4 1.4zM477.4 860.5c-1 4.1 1.9 6.3 5.4 4.2 1.7-1.1 1.5-5.4-.4-6.1-3-1.1-4.4-.6-5 1.9zM490.6 860.6c-2 1.9-2 2.5-.2 4.9 1.2 1.7 1.8 1.8 4 .7 3.1-1.4 3.4-4.7.7-6.2-2.5-1.3-2.7-1.3-4.5.6zM476.6 872.2c-2.8 4 2.2 8.1 5.4 4.3 1.7-2 .9-4.6-1.7-5.6-1.7-.6-2.6-.3-3.7 1.3zM488.5 873.9c-.9 2.8.5 5.1 3 5.1 3.2 0 4.9-2.3 3.5-4.9-1.4-2.7-5.6-2.8-6.5-.2z"/><path d="M191 876.1c-6.4.9-9.4 2.3-14.5 7-7.7 7.1-7.6 6.7-7.3 67l.3 52.4 2.5 4.5c2.9 5.2 9.5 10.5 14.8 12 2.5.7 109.2 1 333.9 1h330.2l4.8-2.1c5.8-2.4 9.7-6 12.6-11.4 2.2-3.9 2.2-4.9 2.5-56.5.2-38.1 0-53.7-.9-56.8-1.5-5.5-8.1-12.9-13.6-15.3-12.7-5.4-26.9.2-32.5 12.9-2 4.4-2.1 6.4-2.1 42.3v37.7H218.4l-.1-37.8c-.1-35.2-.2-38-2-42.1-4.5-10.2-14.9-16.3-25.3-14.8z"/></svg>